<svg width="28" height="28" viewBox="0 0 28 28" fill="none" xmlns="http://www.w3.org/2000/svg">
<path d="M17.1613 16.5227L17.7452 15.9388L18.3838 16.5774L16.5774 18.3838L15.9388 17.7452L16.5227 17.1613L15.89 16.5281C15.4763 16.8379 14.9859 17.0484 14.4516 17.1252V18.0645H15.3548V18.9677H12.6452V18.0645H13.5484V17.1252C13.0141 17.0484 12.5237 16.8379 12.11 16.5281L11.4773 17.1613L12.0612 17.7452L11.4226 18.3838L9.61619 16.5774L10.2548 15.9388L10.8387 16.5227L11.4719 15.8895C11.1621 15.4763 10.9516 14.9859 10.8748 14.4516H9.93548V15.3548H9.03226V12.6452H9.93548V13.5484H10.8748C10.9516 13.0141 11.1621 12.5237 11.4719 12.1105L10.8387 11.4773L10.2548 12.0612L9.61619 11.4226L11.4226 9.61619L12.0612 10.2548L11.4773 10.8387L12.11 11.4719C12.5232 11.1621 13.0141 10.9516 13.5484 10.8748V9.93548H12.6452V9.03226H15.3548V9.93548H14.4516V10.8748C14.9859 10.9516 15.4763 11.1621 15.89 11.4719L16.5227 10.8387L15.9388 10.2548L16.5774 9.61619L18.3838 11.4226L17.7452 12.0612L17.1613 11.4773L16.5281 12.1105C16.8379 12.5237 17.0479 13.0141 17.1252 13.5484H18.0645V12.6452H18.9677V15.3548H18.0645V14.4516H17.1252C17.0484 14.9859 16.8379 15.4763 16.5281 15.8895L17.1613 16.5227ZM14.4516 15.8065C14.4516 15.5572 14.2488 15.3548 14 15.3548C13.7512 15.3548 13.5484 15.5572 13.5484 15.8065C13.5484 16.0557 13.7512 16.2581 14 16.2581C14.2488 16.2581 14.4516 16.0557 14.4516 15.8065ZM12.6461 15.7956C12.6519 15.0536 13.2566 14.4516 14 14.4516C14.7434 14.4516 15.3481 15.0536 15.3539 15.7956C15.801 15.4578 16.1185 14.9619 16.2192 14.3879C16.0883 14.4295 15.9496 14.4516 15.8065 14.4516C15.0595 14.4516 14.4516 13.8437 14.4516 13.0968C14.4516 12.6434 14.6774 12.2432 15.0206 11.9971C14.7126 11.8395 14.3694 11.7419 14 11.7419C13.6306 11.7419 13.2874 11.8395 12.9794 11.9971C13.3226 12.2432 13.5484 12.6434 13.5484 13.0968C13.5484 13.8437 12.9405 14.4516 12.1935 14.4516C12.0504 14.4516 11.9117 14.4295 11.7812 14.3879C11.8815 14.9619 12.199 15.4578 12.6461 15.7956ZM15.7988 12.6497C15.5653 12.6596 15.3548 12.8515 15.3548 13.0968C15.3548 13.3461 15.5576 13.5484 15.8065 13.5484C15.9478 13.5484 16.0761 13.4843 16.1601 13.3781C16.0828 13.1117 15.9614 12.866 15.7988 12.6497ZM12.2017 12.6492C12.0386 12.8655 11.9172 13.1112 11.8399 13.3781C11.9239 13.4843 12.0522 13.5484 12.1935 13.5484C12.4424 13.5484 12.6452 13.3461 12.6452 13.0968C12.6452 12.8515 12.4343 12.6587 12.2017 12.6492ZM13.5484 28H10.8387V23.2192L8.39368 20.7742L10.3871 18.7808L13.5484 21.9421V28ZM12.6452 22.316L10.3871 20.0579L9.67084 20.7742L11.7419 22.8453V27.0968H12.6452V22.316ZM17.1613 23.2192V28H14.4516V21.9421L17.6129 18.7808L19.6063 20.7742L17.1613 23.2192ZM15.3548 22.316V27.0968H16.2581V22.8453L18.3292 20.7742L17.6129 20.0579L15.3548 22.316ZM7.22581 8.39368L9.21922 10.3871L6.05794 13.5484H0V10.8387H4.78077L7.22581 8.39368ZM0.903226 12.6452H5.684L7.94206 10.3871L7.22581 9.67084L5.15471 11.7419H0.903226V12.6452ZM9.21922 17.6129L7.22581 19.6063L4.78077 17.1613H0V14.4516H6.05794L9.21922 17.6129ZM0.903226 15.3548V16.2581H5.15471L7.22581 18.3292L7.94206 17.6129L5.684 15.3548H0.903226ZM14.4516 0H17.1613V4.78078L19.6063 7.22581L17.6129 9.21923L14.4516 6.05794V0ZM15.3548 5.684L17.6129 7.94206L18.3292 7.22581L16.2581 5.15471V0.903227H15.3548V5.684ZM13.5484 0V6.05794L10.3871 9.21923L8.39368 7.22581L10.8387 4.78078V0H13.5484ZM9.67084 7.22581L10.3871 7.94206L12.6452 5.684V0.903227H11.7419V5.15471L9.67084 7.22581ZM20.7742 19.6063L18.7808 17.6129L21.9421 14.4516H28V17.1613H23.2192L20.7742 19.6063ZM27.0968 15.3548H22.316L20.0579 17.6129L20.7742 18.3292L22.8453 16.2581H27.0968V15.3548ZM18.7808 10.3871L20.7742 8.39368L23.2192 10.8387H28V13.5484H21.9421L18.7808 10.3871ZM27.0968 12.6452V11.7419H22.8453L20.7742 9.67084L20.0579 10.3871L22.316 12.6452H27.0968ZM1.80645 23.4839V22.5806H2.75529C2.814 22.293 2.92871 22.0261 3.08587 21.789L2.39039 21.0935L3.02897 20.4549L3.72445 21.1504C3.96155 20.9932 4.22845 20.8785 4.51613 20.8198V19.871H5.41935V20.8198C5.70703 20.8785 5.97439 20.9932 6.21103 21.1504L6.90652 20.4549L7.5451 21.0935L6.84961 21.789C7.00677 22.0256 7.12148 22.293 7.18019 22.5806H8.12903V23.4839H7.18019C7.12148 23.7715 7.00677 24.0385 6.84961 24.2755L7.5451 24.971L6.90652 25.6096L6.21103 24.9141C5.97439 25.0713 5.70703 25.186 5.41935 25.2447V26.1935H4.51613V25.2447C4.22845 25.186 3.9611 25.0713 3.72445 24.9141L3.02897 25.6096L2.39039 24.971L3.08587 24.2755C2.92871 24.0385 2.814 23.7715 2.75529 23.4839H1.80645ZM4.96774 24.3871C5.71471 24.3871 6.32258 23.7792 6.32258 23.0323C6.32258 22.2853 5.71471 21.6774 4.96774 21.6774C4.22077 21.6774 3.6129 22.2853 3.6129 23.0323C3.6129 23.7792 4.22077 24.3871 4.96774 24.3871ZM19.871 5.41936V4.51613H20.8198C20.8785 4.22845 20.9932 3.96155 21.1504 3.72445L20.4549 3.02897L21.0935 2.39039L21.789 3.08587C22.0261 2.92871 22.293 2.814 22.5806 2.75529V1.80645H23.4839V2.75529C23.7715 2.814 24.0389 2.92871 24.2755 3.08587L24.971 2.39039L25.6096 3.02897L24.9141 3.72445C25.0713 3.9611 25.186 4.22845 25.2447 4.51613H26.1935V5.41936H25.2447C25.186 5.70703 25.0713 5.97394 24.9141 6.21103L25.6096 6.90652L24.971 7.5451L24.2755 6.84961C24.0385 7.00677 23.7715 7.12148 23.4839 7.18019V8.12903H22.5806V7.18019C22.293 7.12148 22.0256 7.00677 21.789 6.84961L21.0935 7.5451L20.4549 6.90652L21.1504 6.21103C20.9932 5.97439 20.8785 5.70703 20.8198 5.41936H19.871ZM23.0323 6.32258C23.7792 6.32258 24.3871 5.71471 24.3871 4.96774C24.3871 4.22078 23.7792 3.6129 23.0323 3.6129C22.2853 3.6129 21.6774 4.22078 21.6774 4.96774C21.6774 5.71471 22.2853 6.32258 23.0323 6.32258Z" fill="white"/>
</svg>
