<svg height="56" viewBox="0 0 56 56" width="56" xmlns="http://www.w3.org/2000/svg">
	<path d="m17 0c9.3888407 0 17 7 17 19 0 4.7636386-2.6789465 10.6303728-5.9099173 15.9737328l-.5432418.885435c-.1825413.2933437-.3664216.5847932-.5512763.8740696l-.5571225.8610309c-.0932194.1423256-.1865912.2840382-.2800698.4251029l-.5617892.8383352-.5621649.8211132-.5603526.8022178-.5563519.781649-.5501633.759407-.5417862.7354917-.5312212.7099029-.5184677.682641-.7490025.9691848-.7079989.8984328-.6596102.8220334c-.0703282.0868834-.1396236.1722475-.2078406.2560574-1.353994 1.6039247-3.6267537 1.5410367-4.9023512.0010995l-.6418023-.7952466-.6926695-.8735463-.4863915-.6230747-.5035277-.6536904-.7826341-1.0342791-.5367928-.7229077-.5462688-.7476657-.55355623-.7707501-.55865498-.7921608-.56156515-.8118979-.56228672-.8299614c-.18730598-.2794784-.37436746-.5616885-.56081967-.8463512l-.55716403-.8610674-.55131977-.8741099-.5432869-.8854788c-3.23124562-5.3436323-5.91053175-11.2108083-5.91053175-15.9747489 0-12 7.61115925-19 17-19zm0 4c-7.62164605 0-13 5.68186168-13 15 0 3.3449314 1.74603693 7.8117412 4.61078113 12.7466705l.50194072.8504516.52315593.858891.54366882.8665985c.0922819.1450347.1853892.2903601.2793073.4359608l.5731213.8767875.5918784.8826652.6099333.887811.6272857.892225.6439358.895907c.1086712.149584.2180068.299291.3279923.4491056l.6675942.9000577.6053668.7997097.3121137.4049638c.6761819.8734104 1.932374 1.0333013 2.8057874.3571233.1337336-.1035337.2537946-.2236125.3573084-.3573614l.5676791-.7404925.6764523-.9027583.6610996-.900404.6450489-.8973232.6283004-.8935159.6108541-.8889818c.2006328-.2954909.3982415-.590105.5927099-.8837213l.5738679-.8777342c.4701785-.7287486.9200029-1.4505039 1.347656-2.1633736l.5024251-.8510575c2.8673764-4.9382099 4.6127355-9.403943 4.6127355-12.7482045 0-9.31813832-5.3783539-15-13-15zm0 5c4.418278 0 8 3.581722 8 8s-3.581722 8-8 8-8-3.581722-8-8 3.581722-8 8-8zm0 4c-2.209139 0-4 1.790861-4 4s1.790861 4 4 4 4-1.790861 4-4-1.790861-4-4-4z #ffffff" transform="translate(11 4)" style="
    fill: #DB2C1D;"/>
</svg>