<svg width="39" height="38" viewBox="0 0 39 38" fill="none" xmlns="http://www.w3.org/2000/svg">
<g clip-path="url(#clip0)">
<path d="M38.0356 9.03859C37.9052 8.55358 37.587 8.1401 37.1516 7.88942C36.7159 7.63751 36.1979 7.56937 35.712 7.69979C35.2266 7.83053 34.8132 8.14842 34.5625 8.58379L34.2468 9.13325C33.9467 8.96089 33.5635 9.06233 33.388 9.3608L31.7841 12.0948L31.2346 11.7791C31.0891 11.6949 30.9158 11.6721 30.7536 11.7159C30.5911 11.76 30.453 11.8666 30.3694 12.0128C30.1983 12.3147 30.3025 12.6982 30.6032 12.8715L31.1526 13.1872L25.7851 22.4888L24.459 26.0316L23.8275 27.2122C23.4578 27.8554 23.4973 28.6549 23.9286 29.2583L22.5078 31.001L22.1101 30.0036C21.9306 29.5589 21.5153 29.2543 21.0377 29.217C20.5597 29.1794 20.1019 29.4156 19.8555 29.8266L19.6283 30.2117L19.4137 27.6858C19.3643 27.0882 18.9015 26.6079 18.3064 26.5357C17.711 26.4639 17.1474 26.8206 16.9571 27.3892L15.4038 32.0494C15.2952 32.379 15.4728 32.7342 15.8015 32.8452C15.8632 32.8739 15.9295 32.8911 15.9973 32.8954C16.2686 32.8964 16.5104 32.7234 16.5973 32.4662L18.1442 27.8061L18.3653 30.3696C18.4109 30.9165 18.8041 31.3713 19.3387 31.4953C19.8734 31.6192 20.4265 31.3837 20.708 30.9128L20.9418 30.5274L21.3334 31.519C21.4995 31.9368 21.8754 32.235 22.3203 32.3013C22.7653 32.3676 23.2117 32.1921 23.4929 31.8409L24.9643 29.9783C25.1271 30.0208 25.2948 30.0421 25.4632 30.0415C26.14 30.0467 26.7684 29.6903 27.1113 29.1066L27.7427 28.0521L30.1487 25.1285L35.5729 15.7131L36.1224 16.0289C36.2688 16.1127 36.3755 16.2512 36.419 16.4143C36.4628 16.5762 36.4399 16.7488 36.3561 16.8941L33.8302 21.2703C33.7349 21.4139 33.7025 21.5903 33.7408 21.7587C33.779 21.9267 33.8842 22.0719 34.0322 22.1604C34.1777 22.2449 34.351 22.2677 34.5132 22.2239C34.6757 22.1799 34.8138 22.0732 34.8973 21.927L37.4232 17.5508C37.6751 17.1151 37.7433 16.5971 37.6125 16.1112C37.4818 15.6259 37.1639 15.2124 36.7285 14.9617L36.1791 14.646L37.7578 11.9117C37.9301 11.6116 37.8287 11.2287 37.5305 11.0529L37.8463 10.5035C38.105 10.061 38.1734 9.53254 38.0356 9.03859ZM35.6549 9.21526C35.7385 9.06911 35.8772 8.96212 36.0403 8.91865C36.2025 8.87856 36.374 8.90107 36.5201 8.98185C36.6666 9.06541 36.7733 9.20416 36.817 9.36697C36.8571 9.52915 36.8346 9.70058 36.7538 9.84674L36.4381 10.3962L35.3392 9.76472L35.6549 9.21526ZM27.048 26.8462L26.7323 26.6631L25.7977 26.1198L26.6944 23.7203L28.6835 24.8695L27.048 26.8462ZM25.1536 28.6709C24.8869 28.485 24.8049 28.1273 24.9643 27.8437L25.28 27.2945L26.3786 27.926L26.0629 28.469C25.9744 28.6225 25.8258 28.7317 25.6528 28.7702C25.4799 28.8085 25.2989 28.7727 25.1536 28.6709ZM29.4034 23.8341L27.2186 22.5711L32.2703 13.8187L34.4552 15.0817L29.4034 23.8341ZM35.0867 13.9892L32.9018 12.7263L34.1647 10.5414L36.3496 11.8044L35.0867 13.9892Z" fill="white"/>
<path d="M10.175 28.3552L7.93986 30.5845L6.60107 29.2457C6.35471 29.0009 5.95695 29.0009 5.71059 29.2457C5.59096 29.3644 5.52374 29.5256 5.52374 29.694C5.52374 29.8623 5.59096 30.0239 5.71059 30.1423L7.04939 31.4811C7.28619 31.716 7.60624 31.8477 7.93986 31.8474C8.27533 31.8493 8.59815 31.7176 8.8365 31.4811L11.0655 29.2457C11.2801 28.995 11.2656 28.6216 11.0325 28.3885C10.7991 28.1551 10.4257 28.1406 10.175 28.3552Z" fill="white"/>
<path d="M2.73639 30.0537C2.73639 33.0184 5.13956 35.4212 8.1039 35.4212C11.0682 35.4212 13.4714 33.0184 13.4714 30.0537C13.4714 29.705 13.1887 29.4223 12.8399 29.4223C12.4912 29.4223 12.2085 29.705 12.2085 30.0537C12.2085 32.3206 10.3708 34.1583 8.1039 34.1583C5.83701 34.1583 3.99933 32.3206 3.99933 30.0537C3.99933 27.7868 5.83701 25.9492 8.1039 25.9492C8.99252 25.9467 9.8574 26.235 10.5666 26.7703C10.8456 26.9796 11.2415 26.9229 11.4506 26.6439C11.6599 26.3648 11.6035 25.9692 11.3245 25.7599C9.69799 24.5401 7.52176 24.344 5.7035 25.2529C3.88494 26.1622 2.73639 28.0209 2.73639 30.0537Z" fill="white"/>
<path d="M22.9435 5.11072C23.2922 5.11072 23.5749 4.82829 23.5749 4.47925C23.5749 4.13052 23.2922 3.84778 22.9435 3.84778H6.52521C6.17648 3.84778 5.89374 4.13052 5.89374 4.47925V7.00514C5.89374 7.35417 6.17648 7.63661 6.52521 7.63661H22.9435C23.2922 7.63661 23.5749 7.35417 23.5749 7.00514C23.5749 6.65641 23.2922 6.37366 22.9435 6.37366H7.15668V5.11072H22.9435Z" fill="white"/>
<path d="M8.41962 8.89954C8.07089 8.89954 7.78815 9.18228 7.78815 9.53101C7.78815 9.88005 8.07089 10.1625 8.41962 10.1625H21.0491C21.3978 10.1625 21.6805 9.88005 21.6805 9.53101C21.6805 9.18228 21.3978 8.89954 21.0491 8.89954H8.41962Z" fill="white"/>
<path d="M24.8379 13.3198H10.9456C10.5968 13.3198 10.3141 13.6026 10.3141 13.9513C10.3141 14.3003 10.5968 14.5828 10.9456 14.5828H24.8379C25.1866 14.5828 25.4694 14.3003 25.4694 13.9513C25.4694 13.6026 25.1866 13.3198 24.8379 13.3198Z" fill="white"/>
<path d="M18.5232 17.7401C18.5232 17.3914 18.2404 17.1086 17.8917 17.1086H5.26227C4.91354 17.1086 4.6308 17.3914 4.6308 17.7401C4.6308 18.0891 4.91354 18.3716 5.26227 18.3716H17.8917C18.2404 18.3716 18.5232 18.0891 18.5232 17.7401Z" fill="white"/>
<path d="M24.8379 17.1086H20.4176C20.0689 17.1086 19.7861 17.3914 19.7861 17.7401C19.7861 18.0891 20.0689 18.3716 20.4176 18.3716H24.8379C25.1866 18.3716 25.4694 18.0891 25.4694 17.7401C25.4694 17.3914 25.1866 17.1086 24.8379 17.1086Z" fill="white"/>
<path d="M11.577 21.5289C11.9257 21.5289 12.2085 21.2465 12.2085 20.8975C12.2085 20.5487 11.9257 20.266 11.577 20.266H5.26227C4.91354 20.266 4.6308 20.5487 4.6308 20.8975C4.6308 21.2465 4.91354 21.5289 5.26227 21.5289H11.577Z" fill="white"/>
<path d="M14.1029 21.5289H18.5232C18.8719 21.5289 19.1547 21.2465 19.1547 20.8975C19.1547 20.5487 18.8719 20.266 18.5232 20.266H14.1029C13.7542 20.266 13.4714 20.5487 13.4714 20.8975C13.4714 21.2465 13.7542 21.5289 14.1029 21.5289Z" fill="white"/>
<path d="M28.6267 29.1054C28.278 29.1054 27.9952 29.3882 27.9952 29.7369V36.0516C27.9952 36.4006 27.7125 36.6831 27.3638 36.6831H2.10492C1.7562 36.6831 1.47345 36.4006 1.47345 36.0516V1.95215C1.47345 1.60343 1.7562 1.32068 2.10492 1.32068H27.3638C27.7125 1.32068 27.9952 1.60343 27.9952 1.95215V13.8114C27.9952 14.1601 28.278 14.4428 28.6267 14.4428C28.9754 14.4428 29.2582 14.1601 29.2582 13.8114V1.95215C29.2582 0.905971 28.41 0.0577393 27.3638 0.0577393H2.10492C1.05874 0.0577393 0.21051 0.905971 0.21051 1.95215V36.0516C0.21051 37.0981 1.05874 37.946 2.10492 37.946H27.3638C28.41 37.946 29.2582 37.0981 29.2582 36.0516V29.7369C29.2582 29.3882 28.9754 29.1054 28.6267 29.1054Z" fill="white"/>
</g>
<defs>
<clipPath id="clip0">
<rect width="37.8947" height="37.8947" fill="white" transform="translate(0.21051 0.0526123)"/>
</clipPath>
</defs>
</svg>
