<svg width="43" height="47" viewBox="0 0 43 47" fill="none" xmlns="http://www.w3.org/2000/svg">
<path d="M38.5363 1.66378C38.5363 1.21002 38.1685 0.842163 37.7147 0.842163C37.261 0.842163 36.8931 1.21001 36.8931 1.66378V3.71782H38.5363V8.03121H36.8931V9.46903H38.5363L38.5363 12.961H39.9742L39.9742 3.71782H41.412V2.07459H38.5363L38.5363 1.66378Z" fill="white"/>
<path d="M35.4553 3.51242C35.4553 2.71833 36.099 2.07459 36.8931 2.07459V22.5123L37.7147 24.4637L38.5363 22.5123L38.5363 19.5339H36.8931V18.0961H38.5363L38.5363 14.3988H39.9742V22.615H39.9281L38.627 25.5129C38.2735 26.3001 37.1559 26.3001 36.8024 25.5129L35.5014 22.615H35.4553V3.51242Z" fill="white"/>
<path d="M0.947372 13.7827C0.947372 12.9886 1.59111 12.3448 2.3852 12.3448V26.1069H0.947372V13.7827Z" fill="white"/>
<path d="M0.947372 27.3393H2.3852V42.5392C1.59111 42.5392 0.947372 41.8955 0.947372 41.1014V27.3393Z" fill="white"/>
<path fill-rule="evenodd" clip-rule="evenodd" d="M5.26086 18.0961V16.6583H33.2229C33.7751 16.6583 34.2229 17.106 34.2229 17.6583L34.2229 37.3721C34.2229 38.1806 33.8965 38.9548 33.3178 39.5194L26.6753 46C26.1149 46.5466 25.3631 46.8526 24.5803 46.8526H6.6987V45.4148H24.3634V37.1987H32.785L32.785 23.8474H6.6987V22.4096H32.785L32.785 18.0962H6.69869L6.6987 46.8526C5.90461 46.8527 5.26086 46.2089 5.26086 45.4148L5.26087 42.5393L2.3852 42.5392L2.38521 41.1015H5.26087V19.5339H2.38521V18.0961H5.26086ZM25.8013 44.6959L31.9634 38.6365H25.8013L25.8013 44.6959Z" fill="white"/>
<path d="M41.412 2.07459C42.2061 2.07459 42.8498 2.71833 42.8498 3.51242V10.188C42.8498 10.5851 42.528 10.907 42.1309 10.907C41.7339 10.907 41.412 10.5851 41.412 10.188L41.412 2.07459Z" fill="white"/>
<path d="M2.3852 12.3448H28.9094C29.4616 12.3448 29.9094 12.7926 29.9094 13.3448V15.2205H28.4715V13.7827H2.38521L2.3852 12.3448Z" fill="white"/>
<path d="M29.0877 26.7231H8.95813V28.1609H29.0877V26.7231Z" fill="white"/>
<path d="M8.95813 29.5988H23.5418V31.0366H8.95813V29.5988Z" fill="white"/>
<path d="M21.8986 35.3501H8.95813V36.7879H21.8986V35.3501Z" fill="white"/>
<path d="M8.95813 38.2258H10.396V39.6636H8.95813V38.2258Z" fill="white"/>
<path d="M13.2716 38.2258H11.8338V39.6636H13.2716V38.2258Z" fill="white"/>
<path d="M14.7095 38.2258H16.1473V39.6636H14.7095V38.2258Z" fill="white"/>
<path d="M29.0877 32.4743H8.95813V33.9122H29.0877V32.4743Z" fill="white"/>
</svg>
