<svg width="46" height="46" viewBox="0 0 46 46" fill="none" xmlns="http://www.w3.org/2000/svg">
<g clip-path="url(#clip0)">
<path d="M32.2576 32.7229H13.7425C13.3848 32.7229 13.0949 33.0129 13.0949 33.3705C13.0949 33.7282 13.3848 34.0181 13.7425 34.0181H32.2576C32.6153 34.0181 32.9052 33.7282 32.9052 33.3705C32.9052 33.0129 32.6152 32.7229 32.2576 32.7229Z" fill="white"/>
<path d="M32.9052 36.1758C32.9052 35.8182 32.6153 35.5282 32.2576 35.5282H13.7425C13.3848 35.5282 13.0949 35.8182 13.0949 36.1758C13.0949 36.5335 13.3848 36.8234 13.7425 36.8234H32.2576C32.6152 36.8234 32.9052 36.5335 32.9052 36.1758Z" fill="white"/>
<path d="M16.4509 38.3335C16.0932 38.3335 15.8033 38.6235 15.8033 38.9811C15.8033 39.3388 16.0932 39.6287 16.4509 39.6287H29.5491C29.9068 39.6287 30.1967 39.3388 30.1967 38.9811C30.1967 38.6235 29.9068 38.3335 29.5491 38.3335H16.4509Z" fill="white"/>
<path d="M32.9568 16.3908L36.8478 14.9708C37.2001 14.8422 37.4277 14.5168 37.4277 14.1418C37.4277 13.7668 37.2 13.4415 36.8478 13.3129L24.0156 8.62973C23.3608 8.39072 22.6395 8.39063 21.9846 8.62973L9.15245 13.3128C8.80015 13.4413 8.57245 13.7667 8.57245 14.1418C8.57245 14.5169 8.80006 14.8422 9.15236 14.9708L13.0434 16.3908V24.0455C13.0434 24.5504 13.2661 25.0295 13.6073 25.3516C13.9454 25.6704 14.3201 25.9706 14.7257 26.2511C14.7256 26.2512 14.7255 26.2514 14.7253 26.2514C14.2897 26.679 14.0399 27.272 14.0399 27.8784V28.3142C14.0399 28.5064 14.1001 28.6892 14.2052 28.8409L13.5758 30.2918C13.4335 30.6199 13.5841 31.0013 13.9122 31.1436C14.24 31.2859 14.6216 31.1355 14.7641 30.8072L15.3571 29.44C15.4418 29.4671 15.5274 29.4905 15.6137 29.5098V30.9677C15.6137 31.3254 15.9036 31.6153 16.2613 31.6153C16.6191 31.6153 16.909 31.3254 16.909 30.9677V29.5098C16.9953 29.4905 17.0809 29.4671 17.1655 29.44L17.7586 30.8072C17.9012 31.1357 18.2828 31.2858 18.6104 31.1436C18.9387 31.0013 19.0892 30.6199 18.9469 30.2918L18.3175 28.8409C18.4226 28.6892 18.4829 28.5063 18.4829 28.3141V27.9799C19.9028 28.3834 21.4427 28.595 23 28.595C26.3065 28.595 30.0117 27.5973 32.3928 25.3513C32.735 25.0284 32.9566 24.5455 32.9566 24.0453C32.9568 23.1795 32.9568 17.2683 32.9568 16.3908ZM22.4286 9.84647C22.7971 9.71193 23.2031 9.71193 23.5715 9.84647L35.3412 14.1419C35.1223 14.2217 23.7737 18.3634 23.5716 18.4372C23.2029 18.5717 22.797 18.5716 22.4286 18.4372L17.9051 16.7863L21.6475 14.9378L21.9847 15.0609C22.3121 15.1804 22.656 15.2401 23.0001 15.2401C23.3442 15.2401 23.6883 15.1804 24.0157 15.0609L24.6129 14.8429C24.9772 14.7101 25.2218 14.3605 25.2218 13.9729V13.4958C25.2218 12.2936 24.2442 11.2971 23.0424 11.2746C22.4559 11.2639 21.8929 11.4892 21.4641 11.9101C21.0285 12.3377 20.7787 12.9307 20.7787 13.5371V13.9225C16.0545 16.2558 16.3561 16.1008 16.2399 16.1786L10.6591 14.1419L22.4286 9.84647ZM22.0736 13.7146V13.537C22.0736 13.2761 22.1821 13.02 22.3711 12.8344C22.5497 12.6592 22.7768 12.5662 23.0179 12.5695C23.5188 12.5789 23.9264 12.9944 23.9264 13.4957V13.7145L23.5715 13.844C23.203 13.9786 22.7971 13.9785 22.4287 13.844L22.0736 13.7146ZM15.6138 22.2124C15.2055 21.9419 14.8305 21.6482 14.496 21.3327C14.396 21.2383 14.3386 21.1057 14.3386 20.9689V16.8637L15.6148 17.3294C15.6133 17.4127 15.6138 16.7689 15.6138 22.2124ZM15.335 28.0561C15.335 27.8719 15.3011 27.5012 15.6325 27.1758C15.8219 26.9899 16.0579 26.907 16.2792 26.911C16.9441 26.9236 17.1877 27.3936 17.1877 28.056C16.4096 28.34 16.2703 28.3975 15.335 28.0561ZM15.6138 25.2887C15.2429 25.0431 14.9026 24.7795 14.5958 24.5005C14.4992 24.4126 14.3385 24.2942 14.3385 24.0455V22.894C14.7315 23.1936 15.1594 23.4698 15.6138 23.7236V25.2887ZM18.0119 26.4714C17.7355 26.116 17.3542 25.8471 16.909 25.7117V24.3507C18.274 24.9199 19.8135 25.2999 21.4302 25.4468C21.7871 25.4789 22.1015 25.2167 22.1338 24.8605C22.1663 24.5044 21.9038 24.1894 21.5476 24.157C19.856 24.0032 18.2641 23.5787 16.909 22.9388V17.8017L21.9845 19.654C22.304 19.7706 22.6517 19.8333 23 19.8333C23.3565 19.8332 23.7047 19.7674 24.0154 19.654H24.0155L31.6615 16.8637V20.9689C31.6615 21.1057 31.6041 21.2383 31.5041 21.3327C29.8762 22.8681 27.3061 23.8976 24.4524 24.1571C24.0962 24.1894 23.8337 24.5044 23.8662 24.8606C23.8985 25.2168 24.2132 25.4795 24.5698 25.4469C27.3161 25.1972 29.8434 24.28 31.6615 22.8941V24.0456C31.6615 24.1879 31.5981 24.3207 31.5041 24.4094C29.3527 26.4386 25.9664 27.3001 23 27.3001C21.2517 27.2999 19.5319 27.0138 18.0119 26.4714Z" fill="white"/>
<path d="M8.61959 45.1053H37.3806C38.8052 45.1053 39.9644 43.9462 39.9644 42.5215V24.8564C39.9644 24.4988 39.6745 24.2088 39.3168 24.2088C38.959 24.2088 38.6692 24.4988 38.6692 24.8564V42.5215C38.6692 43.2321 38.0911 43.8101 37.3806 43.8101H8.61959C7.90903 43.8101 7.33093 43.2321 7.33093 42.5215V6.18922H38.6692V21.8342C38.6692 22.1919 38.959 22.4819 39.3168 22.4819C39.6745 22.4819 39.9644 22.1919 39.9644 21.8342C39.9644 21.2148 39.9644 4.36037 39.9644 3.47858C39.9644 2.054 38.8055 0.894775 37.3806 0.894775C36.6035 0.894775 8.87691 0.894775 8.61959 0.894775C7.19485 0.894775 6.03571 2.05383 6.03571 3.47858V42.5214C6.03571 43.9462 7.19485 45.1053 8.61959 45.1053ZM38.6692 3.47858V4.894H12.5044V2.19H37.3806C38.0909 2.19 38.6692 2.76784 38.6692 3.47858ZM7.33093 3.47858C7.33093 2.90125 7.7125 2.4114 8.23681 2.24803C8.35779 2.21029 8.48636 2.19 8.61959 2.19H11.2092V4.894H7.33093V3.47858Z" fill="white"/>
</g>
<defs>
<clipPath id="clip0">
<rect width="44.2105" height="44.2105" fill="white" transform="translate(0.894745 0.894775)"/>
</clipPath>
</defs>
</svg>
