<svg width="26" height="25" viewBox="0 0 26 25" fill="none" xmlns="http://www.w3.org/2000/svg">
<path fill-rule="evenodd" clip-rule="evenodd" d="M15.2426 14.2666V3.02505C15.2426 1.35708 13.8856 0 12.2176 0C10.5494 0 9.19234 1.35708 9.19234 3.02505V14.2666C8.11354 14.9284 7.27564 15.9285 6.81654 17.1103C6.71888 17.3616 6.84343 17.6447 7.09482 17.7423C7.34602 17.8398 7.62907 17.7153 7.72673 17.4639C8.13814 16.4053 8.91501 15.5218 9.91446 14.9765C10.0714 14.8911 10.1689 14.7266 10.1689 14.5479V3.02505C10.1689 1.89552 11.0879 0.976562 12.2176 0.976562C13.3471 0.976562 14.2661 1.89552 14.2661 3.02505V14.5479C14.2661 14.7266 14.3637 14.8911 14.5205 14.9765C16.0706 15.8222 17.0336 17.4435 17.0336 19.2074C17.0336 21.863 14.873 24.0234 12.2174 24.0234C10.2147 24.0234 8.4519 22.8174 7.72673 20.9507C7.62907 20.6993 7.34621 20.5748 7.09482 20.6724C6.84343 20.7701 6.71869 21.0529 6.81635 21.3043C7.24112 22.3974 7.97716 23.3253 8.94514 23.9876C9.91312 24.6498 11.0448 25 12.2176 25C15.4116 25 18.0102 22.4014 18.0102 19.2074C18.0102 17.1843 16.957 15.3172 15.2426 14.2666Z" fill="#7A7A7A"/>
<path fill-rule="evenodd" clip-rule="evenodd" d="M12.2175 4.26659C11.9478 4.26659 11.7293 4.48517 11.7293 4.75487V15.872C10.101 16.1095 8.8465 17.5145 8.8465 19.2074C8.8465 21.0661 10.3586 22.5785 12.2175 22.5785C14.0763 22.5785 15.5886 21.0661 15.5886 19.2074C15.5886 17.5145 14.3339 16.1095 12.7058 15.872V4.75487C12.7058 4.48517 12.4872 4.26659 12.2175 4.26659ZM14.612 19.2074C14.612 20.5277 13.5378 21.6019 12.2175 21.6019C10.8971 21.6019 9.82306 20.5277 9.82306 19.2074C9.82306 17.887 10.8971 16.8127 12.2175 16.8127C13.5378 16.8127 14.612 17.887 14.612 19.2074Z" fill="#7A7A7A"/>
<path fill-rule="evenodd" clip-rule="evenodd" d="M17.0858 5.61465H19.6226C19.8923 5.61465 20.1109 5.39607 20.1109 5.12637C20.1109 4.85667 19.8923 4.63809 19.6226 4.63809H17.0858C16.8161 4.63809 16.5975 4.85667 16.5975 5.12637C16.5975 5.39607 16.8161 5.61465 17.0858 5.61465Z" fill="#7A7A7A"/>
<path fill-rule="evenodd" clip-rule="evenodd" d="M19.6226 6.89333H17.0858C16.8161 6.89333 16.5975 7.11191 16.5975 7.38161C16.5975 7.65112 16.8161 7.86989 17.0858 7.86989H19.6226C19.8923 7.86989 20.1109 7.65112 20.1109 7.38161C20.1109 7.11191 19.8923 6.89333 19.6226 6.89333Z" fill="#7A7A7A"/>
<path fill-rule="evenodd" clip-rule="evenodd" d="M19.6226 9.14838H17.0858C16.8161 9.14838 16.5975 9.36696 16.5975 9.63666C16.5975 9.90636 16.8161 10.1249 17.0858 10.1249H19.6226C19.8923 10.1249 20.1109 9.90636 20.1109 9.63666C20.1109 9.36696 19.8923 9.14838 19.6226 9.14838Z" fill="#7A7A7A"/>
<path fill-rule="evenodd" clip-rule="evenodd" d="M19.6226 11.4035H17.0858C16.8161 11.4035 16.5975 11.6222 16.5975 11.8918C16.5975 12.1615 16.8161 12.38 17.0858 12.38H19.6226C19.8923 12.38 20.1109 12.1615 20.1109 11.8918C20.1109 11.6221 19.8923 11.4035 19.6226 11.4035Z" fill="#7A7A7A"/>
<path fill-rule="evenodd" clip-rule="evenodd" d="M7.40156 19.2073C7.40156 18.9384 7.18221 18.719 6.91328 18.719C6.64434 18.719 6.4248 18.9384 6.4248 19.2073C6.4248 19.4763 6.64434 19.6956 6.91328 19.6956C7.18221 19.6956 7.40156 19.4763 7.40156 19.2073Z" fill="#7A7A7A"/>
</svg>
