<svg width="26" height="25" viewBox="0 0 26 25" fill="none" xmlns="http://www.w3.org/2000/svg">
<g clip-path="url(#clip0)">
<path d="M14.9606 2.24609C13.6918 2.24609 12.4368 2.66895 11.4267 3.43685L5.58943 7.87373H1.60117C0.856155 7.87373 0.25 8.47988 0.25 9.22489V15.8442C0.25 16.5892 0.856155 17.1953 1.60117 17.1953H5.6497L11.4267 21.5866C12.4368 22.3543 13.6918 22.7772 14.9606 22.7772C15.595 22.7772 16.1109 22.2612 16.1109 21.627V3.39622C16.1109 2.76203 15.595 2.24609 14.9606 2.24609ZM15.3739 21.627C15.3739 21.855 15.1885 22.0402 14.9606 22.0402C13.8521 22.0402 12.7553 21.6707 11.8726 20.9997L6.0821 16.5983V11.4798C6.0821 11.2762 5.91711 11.1113 5.7136 11.1113C5.51009 11.1113 5.3451 11.2762 5.3451 11.4798V16.4583H1.60117C1.26261 16.4583 0.987 16.1827 0.987 15.8442V9.22489C0.987 8.88634 1.26261 8.61073 1.60117 8.61073H5.3451V9.76009C5.3451 9.96361 5.51009 10.1286 5.7136 10.1286C5.91711 10.1286 6.0821 9.96361 6.0821 9.76009V8.42495L11.8726 4.02355C12.7553 3.35255 13.8521 2.98309 14.9606 2.98309C15.1885 2.98309 15.3739 3.16849 15.3739 3.39622V21.627Z" fill="#7A7A7A"/>
<path d="M23.8224 7.933C23.4545 7.40162 23.0247 6.91582 22.5452 6.48933C22.3932 6.3541 22.1603 6.36783 22.0249 6.51985C21.8897 6.67206 21.9034 6.90494 22.0554 7.04017C22.4913 7.42775 22.8819 7.8693 23.2164 8.35262C24.0646 9.5779 24.5131 11.016 24.5131 12.5116C24.5131 14.0073 24.0648 15.4455 23.2164 16.6708C22.3881 17.8674 21.2374 18.7822 19.8891 19.3159C19.4096 19.5058 19.0664 18.7431 19.5816 18.5392C22.0699 17.5542 23.6778 15.1882 23.6778 12.5116C23.6778 9.8352 22.0699 7.46914 19.5816 6.48418C19.4778 6.44298 19.3964 6.36402 19.3521 6.2616C19.3077 6.15936 19.306 6.04587 19.347 5.94211C19.4319 5.72792 19.6751 5.62263 19.8891 5.70751C20.2103 5.83473 20.5248 5.9856 20.8237 6.15593C21.0003 6.25683 21.2254 6.19522 21.3263 6.01841C21.4272 5.8416 21.3655 5.61653 21.1887 5.51582C20.8599 5.32814 20.5139 5.1622 20.1605 5.0222C19.5684 4.78798 18.8961 5.07885 18.6619 5.67089C18.5482 5.95756 18.5533 6.27132 18.6758 6.55437C18.7983 6.83742 19.0237 7.05601 19.3104 7.16949C21.5158 8.04249 22.9408 10.1394 22.9408 12.5118C22.9408 14.884 21.5158 16.9809 19.3104 17.8541C19.0237 17.9676 18.7983 18.186 18.6758 18.469C18.5532 18.7521 18.5482 19.0658 18.6619 19.3527C18.8374 19.7961 19.2589 20.0824 19.7357 20.0824C19.8812 20.0824 20.0243 20.0552 20.1605 20.0012C21.6446 19.4137 22.9109 18.407 23.8226 17.0904C24.7564 15.7411 25.25 14.1578 25.25 12.5116C25.25 10.8654 24.7564 9.28207 23.8224 7.933Z" fill="#7A7A7A"/>
<path d="M20.7467 15.639C20.6048 15.4931 20.3715 15.4898 20.2256 15.6317C19.5447 16.2936 18.6889 16.7065 17.7503 16.8259C17.1727 16.8994 17.1409 16.0615 17.6452 15.9972C19.3938 15.775 20.7124 14.2766 20.7124 12.5117C20.7124 10.747 19.3938 9.24859 17.6452 9.02638C17.4167 8.9972 17.2546 8.78777 17.2835 8.55927C17.2977 8.44864 17.3539 8.35003 17.4422 8.28175C17.5304 8.21347 17.6397 8.18371 17.7505 8.19764C19.9153 8.47287 21.5476 10.3276 21.5476 12.5117C21.5476 13.2067 21.3779 13.8995 21.057 14.5154C20.9628 14.6958 21.033 14.9184 21.2134 15.0124C21.3939 15.1066 21.6165 15.0364 21.7105 14.856C22.0861 14.1354 22.2846 13.3248 22.2846 12.5117C22.2846 9.95736 20.3754 7.78832 17.8435 7.46655C17.5376 7.42745 17.2347 7.51004 16.9908 7.69905C16.747 7.88788 16.5914 8.16044 16.5523 8.46638C16.5134 8.77232 16.5961 9.07521 16.785 9.31897C16.9738 9.56273 17.2462 9.71856 17.5521 9.75728C18.9336 9.93294 19.9752 11.117 19.9752 12.5117C19.9752 13.9063 18.9334 15.0904 17.5521 15.2659C16.9206 15.3462 16.472 15.9255 16.5523 16.557C16.6253 17.1322 17.1174 17.5662 17.6969 17.5662C17.7457 17.5662 17.7951 17.5631 17.8434 17.5568C18.9414 17.4172 19.9428 16.9343 20.7391 16.1599C20.8852 16.0182 20.8884 15.7849 20.7467 15.639Z" fill="#7A7A7A"/>
</g>
<defs>
<clipPath id="clip0">
<rect width="25" height="25" fill="white" transform="translate(0.25)"/>
</clipPath>
</defs>
</svg>
