<svg width="25" height="25" viewBox="0 0 25 25" fill="none" xmlns="http://www.w3.org/2000/svg">
<path d="M15.2463 21.5146C17.6577 20.7649 19.2778 18.5629 19.2778 16.0352C19.2778 14.7997 18.891 13.6226 18.1592 12.6311C18.1425 12.6085 18.1274 12.5838 18.1148 12.5586C17.9939 12.3168 18.0921 12.0232 18.334 11.9022C18.5528 11.7926 18.8146 11.863 18.952 12.0566C19.8056 13.2162 20.2568 14.5918 20.2568 16.0352C20.2568 17.4968 19.7953 18.8866 18.9221 20.054C18.0782 21.1825 16.876 22.0332 15.537 22.4496C15.4886 22.4646 15.4397 22.4718 15.3915 22.4718C15.1828 22.4718 14.9894 22.3372 14.9242 22.1274C14.8439 21.8693 14.9882 21.5949 15.2463 21.5146Z" fill="#7A7A7A"/>
<path d="M2.69789 11.4395C2.69789 10.5077 2.98829 9.61989 3.53784 8.87119L6.63668 4.27094C6.72768 4.13587 6.87983 4.0549 7.0427 4.0549C7.20557 4.0549 7.35772 4.13587 7.44873 4.27094L8.75453 6.20937L12.792 0.216034C12.8829 0.0809698 13.0351 0 13.1979 0C13.3608 0 13.5129 0.0809698 13.6039 0.216034L20.5346 10.5043C21.691 12.0758 22.3021 13.9398 22.3021 15.8958C22.3021 20.9159 18.218 25 13.1979 25C8.1779 25 4.09377 20.9159 4.09377 15.8958C4.09377 15.4951 4.12054 15.0936 4.17258 14.6984C3.26899 13.9017 2.69789 12.7361 2.69789 11.4395ZM7.0427 5.42067L4.34999 9.41796C4.3446 9.42628 4.33893 9.43445 4.333 9.44248C3.90382 10.0237 3.67697 10.7143 3.67697 11.4395C3.67697 13.2953 5.18681 14.8051 7.0427 14.8051C8.89855 14.8051 10.4084 13.2953 10.4084 11.4395C10.4084 10.7143 10.1815 10.0237 9.75235 9.44248C9.74668 9.4348 9.74124 9.42696 9.736 9.41889L8.34948 7.36062C8.34693 7.35685 8.34429 7.35313 8.34184 7.34926L7.0427 5.42067ZM5.07289 15.8958C5.07289 20.3761 8.71781 24.0209 13.198 24.0209C17.6782 24.0209 21.3231 20.3761 21.3231 15.8958C21.3231 14.146 20.7753 12.4789 19.7388 11.0748C19.7329 11.0668 19.7272 11.0585 19.7216 11.0499L13.1979 1.36572L9.34472 7.0856L10.5476 8.87124C11.0971 9.61989 11.3875 10.5077 11.3875 11.4395C11.3875 13.8352 9.43841 15.7843 7.0427 15.7843C6.34217 15.7843 5.67997 15.6174 5.0934 15.3217C5.08004 15.5126 5.07289 15.7043 5.07289 15.8958Z" fill="#7A7A7A"/>
<path d="M8.76881 11.3201C8.76881 11.0829 8.72049 10.854 8.62523 10.6397C8.51538 10.3927 8.62665 10.1034 8.87367 9.99355C9.12074 9.88385 9.41001 9.99492 9.51986 10.242C9.67118 10.5823 9.74789 10.945 9.74789 11.3201C9.74789 12.2086 9.30652 13.0344 8.56727 13.5291C8.48365 13.585 8.38908 13.6117 8.29548 13.6117C8.13755 13.6117 7.98256 13.5355 7.88818 13.3944C7.73784 13.1697 7.79811 12.8656 8.0228 12.7153C8.48992 12.4027 8.76881 11.8812 8.76881 11.3201Z" fill="#7A7A7A"/>
<path d="M13.4301 22.1927C13.5499 21.8778 13.9971 21.7879 14.2285 22.0341C14.5041 22.3012 14.3558 22.7915 13.9779 22.86C13.6032 22.9421 13.2767 22.5444 13.4301 22.1927Z" fill="#7A7A7A"/>
<path d="M7.30058 13.9753C6.98493 14.1939 6.53289 13.9522 6.53935 13.5685C6.53225 13.1848 6.98517 12.9425 7.30058 13.1612C7.58647 13.3404 7.58759 13.7967 7.30058 13.9753Z" fill="#7A7A7A"/>
</svg>
