<svg width="26" height="25" viewBox="0 0 26 25" fill="none" xmlns="http://www.w3.org/2000/svg">
<g clip-path="url(#clip0)">
<path d="M12.75 0C5.85747 0 0.25 5.60747 0.25 12.5C0.25 19.3925 5.85747 25 12.75 25C19.6425 25 25.25 19.3925 25.25 12.5C25.25 5.60747 19.6425 0 12.75 0ZM12.75 23.6985C6.57515 23.6985 1.55151 18.6749 1.55151 12.5C1.55151 6.32515 6.57515 1.30151 12.75 1.30151C18.9249 1.30151 23.9485 6.32515 23.9485 12.5C23.9485 18.6749 18.9249 23.6985 12.75 23.6985Z" fill="#7A7A7A"/>
<path d="M16.7891 5.61945C16.4793 5.43723 16.0804 5.54079 15.8982 5.85056C15.7161 6.16032 15.8195 6.5592 16.1293 6.74138C18.1628 7.93727 19.4261 10.1439 19.4261 12.5C19.4261 16.1814 16.4312 19.1762 12.7498 19.1762C9.06854 19.1762 6.07362 16.1813 6.07362 12.5C6.07362 10.1439 7.3368 7.93727 9.37035 6.74138C9.68016 6.55925 9.78363 6.16037 9.60145 5.85056C9.41932 5.54074 9.0205 5.43737 8.71063 5.61945C6.28129 7.04821 4.77216 9.68469 4.77216 12.5C4.77216 16.899 8.35092 20.4778 12.7499 20.4778C17.1489 20.4778 20.7276 16.899 20.7275 12.5C20.7275 9.68474 19.2184 7.04821 16.7891 5.61945Z" fill="#7A7A7A"/>
<path d="M12.75 3.65387C12.3906 3.65387 12.0992 3.94528 12.0992 4.30465V12.5C12.0992 12.8594 12.3906 13.1507 12.75 13.1507C13.1094 13.1507 13.4008 12.8594 13.4008 12.5V4.30465C13.4008 3.94532 13.1094 3.65387 12.75 3.65387Z" fill="#7A7A7A"/>
</g>
<defs>
<clipPath id="clip0">
<rect width="25" height="25" fill="white" transform="translate(0.25)"/>
</clipPath>
</defs>
</svg>
