<svg width="26" height="25" viewBox="0 0 26 25" fill="none" xmlns="http://www.w3.org/2000/svg">
<g clip-path="url(#clip0)">
<path d="M25.2116 17.8257L16.7399 3.15209C16.0214 1.9079 14.6841 1.13495 13.25 1.13495C11.8159 1.13495 10.4786 1.9079 9.76011 3.15219L1.28838 17.8257C0.936133 18.4357 0.75 19.1311 0.75 19.8366C0.75 22.0578 2.55713 23.8649 4.77832 23.8649H21.7217C23.9429 23.8649 25.75 22.0578 25.75 19.8366C25.75 19.1311 25.5638 18.4357 25.2116 17.8257ZM21.7217 23.1325H4.77832C2.96094 23.1325 1.48242 21.654 1.48242 19.8366C1.48242 19.2595 1.63467 18.6907 1.92271 18.1918L10.3944 3.51835C10.9825 2.49999 12.0767 1.86737 13.25 1.86737C14.4233 1.86737 15.5175 2.49999 16.1056 3.5184L24.5773 18.1919C24.8653 18.6908 25.0176 19.2595 25.0176 19.8367C25.0176 21.654 23.5391 23.1325 21.7217 23.1325Z" fill="#7A7A7A"/>
<path d="M23.5202 18.8022L15.0485 4.12883C14.6778 3.48688 13.9887 3.0881 13.25 3.0881C12.5113 3.0881 11.8222 3.48683 11.4516 4.12878L7.58189 10.8313C7.48076 11.0064 7.54077 11.2304 7.71592 11.3315C7.89111 11.4325 8.11504 11.3726 8.21616 11.1975L12.0858 4.49499C12.3261 4.07897 12.7722 3.82053 13.25 3.82053C13.7278 3.82053 14.174 4.07902 14.4142 4.49504L22.8859 19.1685C23.0044 19.3737 23.0645 19.5986 23.0645 19.8367C23.0645 20.5771 22.4621 21.1795 21.7217 21.1795H4.77832C4.03794 21.1795 3.43555 20.5771 3.43555 19.8367C3.43555 19.5986 3.49561 19.3737 3.61411 19.1685L7.48374 12.466C7.58486 12.2908 7.52485 12.0669 7.34971 11.9657C7.17441 11.8646 6.95054 11.9246 6.84946 12.0998L2.97983 18.8023C2.79619 19.1203 2.70312 19.4683 2.70312 19.8367C2.70312 20.981 3.63403 21.9119 4.77832 21.9119H21.7217C22.866 21.9119 23.7969 20.981 23.7969 19.8367C23.7969 19.4683 23.7038 19.1202 23.5202 18.8022Z" fill="#7A7A7A"/>
<path d="M13.25 6.28693C12.375 6.28693 11.6631 6.99879 11.6631 7.87384V14.4656C11.6631 15.3407 12.375 16.0526 13.25 16.0526C14.125 16.0526 14.8369 15.3407 14.8369 14.4656V7.87384C14.8369 6.99879 14.125 6.28693 13.25 6.28693ZM14.1045 14.4656C14.1045 14.9368 13.7211 15.3201 13.25 15.3201C12.7789 15.3201 12.3955 14.9368 12.3955 14.4656V7.87384C12.3955 7.4027 12.7789 7.01935 13.25 7.01935C13.7211 7.01935 14.1045 7.4027 14.1045 7.87384V14.4656Z" fill="#7A7A7A"/>
<path d="M13.25 16.785C12.375 16.785 11.6631 17.4968 11.6631 18.3719C11.6631 19.2469 12.375 19.9588 13.25 19.9588C14.125 19.9588 14.8369 19.2469 14.8369 18.3719C14.8369 17.4968 14.125 16.785 13.25 16.785ZM13.25 19.2264C12.7789 19.2264 12.3955 18.843 12.3955 18.3719C12.3955 17.9007 12.7789 17.5174 13.25 17.5174C13.7211 17.5174 14.1045 17.9007 14.1045 18.3719C14.1045 18.843 13.7211 19.2264 13.25 19.2264Z" fill="#7A7A7A"/>
</g>
<defs>
<clipPath id="clip0">
<rect width="25" height="25" fill="white" transform="translate(0.75)"/>
</clipPath>
</defs>
</svg>
