<svg width="26" height="25" viewBox="0 0 26 25" fill="none" xmlns="http://www.w3.org/2000/svg">
<g clip-path="url(#clip0)">
<path d="M25.5682 11.5555L13.901 2.01998C13.522 1.71034 12.9778 1.71034 12.599 2.01998L9.61061 4.46284V3.19492C9.61061 2.92107 9.38895 2.69985 9.11509 2.69985H6.23933C5.96548 2.69985 5.74382 2.92129 5.74382 3.19492V7.62308L0.93199 11.5555C0.719948 11.7284 0.689077 12.0407 0.861863 12.2525C0.959968 12.3721 1.10261 12.4349 1.24647 12.4349C1.35665 12.4349 1.46719 12.398 1.55937 12.3232L4.05717 10.2812V22.7168C4.05717 22.9905 4.27883 23.2122 4.5521 23.2122H21.9482C22.2216 23.2122 22.4437 22.9905 22.4437 22.7168V10.2815L24.9415 12.3235C25.0336 12.3985 25.1445 12.4352 25.2543 12.4352C25.3977 12.4352 25.5403 12.3723 25.6385 12.2527C25.8111 12.0407 25.7802 11.7288 25.5682 11.5555ZM6.73463 3.69H8.61944V5.2724L6.73463 6.81301V3.69ZM21.4531 22.2213H5.04733V9.47175L12.826 3.11417C13.0728 2.91239 13.4272 2.91239 13.6741 3.11417L21.4531 9.47175V22.2213Z" fill="#7A7A7A"/>
<g clip-path="url(#clip1)">
<path d="M18.6667 15.1047L16.3236 15.9109L15.3789 15.3692V14.5V13.6434L16.3236 13.1017L18.6667 13.9079C18.8304 13.9709 19.0194 13.8702 19.0698 13.7064C19.1328 13.5426 19.032 13.3537 18.8682 13.3033L17.0543 12.686L18.7548 11.7035C18.906 11.6153 18.9564 11.4138 18.8682 11.2626C18.78 11.1114 18.5785 11.061 18.4273 11.1492L16.7267 12.1318L17.0921 10.2548C17.1298 10.0785 17.0165 9.91473 16.8401 9.87694C16.6638 9.83915 16.5 9.95252 16.4622 10.1289L15.9835 12.5601L15.0388 13.1017L14.3207 12.686L14.3081 12.6734L13.5775 12.2452V11.1618L15.4419 9.53682C15.5804 9.42345 15.593 9.2219 15.4671 9.08333C15.3537 8.94477 15.1521 8.93217 15.0136 9.05814L13.5775 10.3178V8.32752C13.5775 8.15116 13.439 8 13.25 8C13.0736 8 12.9225 8.13857 12.9225 8.32752V10.2926L11.4864 9.04554C11.3479 8.93217 11.1463 8.94477 11.0329 9.07074C10.9196 9.2093 10.9322 9.41085 11.0581 9.52422L12.9225 11.1492V12.2326L12.1919 12.6609L11.4612 13.0891L10.5165 12.5475L10.0378 10.1163C10 9.93992 9.83624 9.82655 9.65988 9.86434C9.48352 9.90213 9.37015 10.0659 9.40794 10.2422L9.77325 12.1192L8.07267 11.1366C7.92151 11.0484 7.71996 11.0988 7.63178 11.25C7.5436 11.4012 7.59399 11.6027 7.74515 11.6909L9.44573 12.6734L7.63178 13.2907C7.46802 13.3537 7.36725 13.53 7.43023 13.6938C7.49321 13.8576 7.66957 13.9583 7.83333 13.8953L10.1764 13.0891L11.1211 13.6308V14.5V15.3566H11.1337L10.189 15.8983L7.84593 15.0921C7.68217 15.0291 7.49321 15.1298 7.44283 15.2936C7.37984 15.4574 7.48062 15.6463 7.64438 15.6967L9.45833 16.314L7.75775 17.2965C7.60659 17.3847 7.5562 17.5862 7.64438 17.7374C7.73256 17.8886 7.93411 17.939 8.08527 17.8508L9.78585 16.8682L9.42054 18.7452C9.38275 18.9215 9.49612 19.0853 9.67248 19.1231C9.84883 19.1609 10.0126 19.0475 10.0504 18.8711L10.5291 16.4399L11.4738 15.8983L12.2171 16.3266L12.9477 16.7548V17.8382L11.0833 19.4632C10.9448 19.5766 10.9322 19.7781 11.0581 19.9167C11.1715 20.0552 11.3731 20.0678 11.5116 19.9419L12.9477 18.6822V20.6725C12.9477 20.8488 13.0862 21 13.2752 21C13.4515 21 13.6027 20.8614 13.6027 20.6725V18.7074L15.0388 19.9671C15.1773 20.0804 15.3789 20.0678 15.4922 19.9419C15.6056 19.8033 15.593 19.6017 15.4671 19.4884L13.5775 17.8508V16.7674L14.3081 16.3391L15.0388 15.9109L15.9835 16.4525L16.4622 18.8837C16.5 19.0601 16.6638 19.1734 16.8401 19.1357C17.0165 19.0979 17.1298 18.9341 17.0921 18.7578L16.7267 16.8808L18.4273 17.8634C18.5785 17.9516 18.78 17.9012 18.8682 17.75C18.9564 17.5988 18.906 17.3973 18.7548 17.3091L17.0543 16.3266L18.8682 15.7093C19.032 15.6463 19.1328 15.47 19.0698 15.3062C19.0068 15.1424 18.8304 15.0417 18.6667 15.1047ZM14.6986 14.5V15.3566L13.968 15.7849L13.25 16.2006L12.5068 15.7723L11.7762 15.344V14.5V13.6434L12.5068 13.2151L13.2374 12.7868L13.968 13.2151L13.9806 13.2277L14.6986 13.6434V14.5Z" fill="#7A7A7A"/>
</g>
</g>
<defs>
<clipPath id="clip0">
<rect width="25" height="25" fill="white" transform="translate(0.75)"/>
</clipPath>
<clipPath id="clip1">
<rect width="13" height="13" fill="white" transform="translate(6.75 8)"/>
</clipPath>
</defs>
</svg>
