<svg width="222" height="49" viewBox="0 0 222 49" fill="none" xmlns="http://www.w3.org/2000/svg">
<g clip-path="url(#clip0)">
<path fill-rule="evenodd" clip-rule="evenodd" d="M6.35882 12.3594L15.4855 16.075V17.5669V19.5017V33.6612V45.703L20.3075 48.2538V35.1435V19.5113V17.5477V13.2931V12.6867L0.814468 4.80322V10.0878L6.35882 12.3594Z" fill="url(#paint0_linear)"/>
<path fill-rule="evenodd" clip-rule="evenodd" d="M37.0186 40.7649L31.035 43.9606V38.4258L37.0186 35.2301V16.4022L41.7821 14.4578V32.6696V38.2044L37.0186 40.7649Z" fill="url(#paint1_linear)"/>
<path fill-rule="evenodd" clip-rule="evenodd" d="M36.2378 12.3594L27.1111 16.075V17.5669V19.5017V33.6612V45.703L22.2891 48.2538V35.1435V19.5113V17.5477V13.2931V12.6867L41.7821 4.80322V10.0878L36.2378 12.3594Z" fill="url(#paint2_linear)"/>
<path fill-rule="evenodd" clip-rule="evenodd" d="M5.57792 40.7649L11.5615 43.9606V38.4258L5.57792 35.2301V16.4022L0.814468 14.4578V32.6696V38.2044L5.57792 40.7649Z" fill="url(#paint3_linear)"/>
<path fill-rule="evenodd" clip-rule="evenodd" d="M21.3715 5.97758L18.9898 5.00538L6.85662 0L1.47821 3.01286L21.2934 11.0311H21.3032L41.0598 3.04173L35.9937 0.20214L23.763 5.00538L21.3715 5.97758Z" fill="url(#paint4_linear)"/>
<path fill-rule="evenodd" clip-rule="evenodd" d="M66.5309 12.4159C66.5968 12.4268 66.6645 12.422 66.7282 12.4019C66.7918 12.3818 66.8497 12.347 66.897 12.3004C66.9443 12.2538 66.9796 12.1967 67 12.1339C67.0204 12.0711 67.0252 12.0044 67.0142 11.9393V11.3624C67.0252 11.2974 67.0204 11.2307 67 11.1679C66.9796 11.1051 66.9443 11.048 66.897 11.0014C66.8497 10.9547 66.7918 10.9199 66.7282 10.8998C66.6645 10.8797 66.5968 10.8749 66.5309 10.8858H55.9749C55.9089 10.8749 55.8413 10.8797 55.7776 10.8998C55.7139 10.9199 55.656 10.9547 55.6088 11.0014C55.5615 11.048 55.5262 11.1051 55.5058 11.1679C55.4854 11.2307 55.4805 11.2974 55.4916 11.3624V11.9393C55.4805 12.0044 55.4854 12.0711 55.5058 12.1339C55.5262 12.1967 55.5615 12.2538 55.6088 12.3004C55.656 12.347 55.7139 12.3818 55.7776 12.4019C55.8413 12.422 55.9089 12.4268 55.9749 12.4159H60.3881V24.2427C60.377 24.3077 60.3819 24.3744 60.4022 24.4372C60.4226 24.5 60.4579 24.5571 60.5052 24.6037C60.5525 24.6503 60.6104 24.6851 60.6741 24.7052C60.7378 24.7253 60.8054 24.7301 60.8713 24.7192H61.5581C61.6241 24.7301 61.6917 24.7253 61.7554 24.7052C61.8191 24.6851 61.877 24.6503 61.9242 24.6037C61.9715 24.5571 62.0068 24.5 62.0272 24.4372C62.0476 24.3744 62.0525 24.3077 62.0414 24.2427V12.4159H66.5309ZM181.871 24.2427V11.3624C181.86 11.2974 181.865 11.2307 181.885 11.1679C181.906 11.1051 181.941 11.048 181.988 11.0014C182.036 10.9547 182.093 10.9199 182.157 10.8998C182.221 10.8797 182.288 10.8749 182.354 10.8858H183.028C183.359 10.8858 183.524 11.0363 183.524 11.3624V22.1357L190.85 11.2872C190.925 11.1583 191.035 11.0526 191.168 10.9817C191.3 10.9109 191.45 10.8777 191.6 10.8858H192.694C192.76 10.8749 192.828 10.8797 192.891 10.8998C192.955 10.9199 193.013 10.9547 193.06 11.0014C193.108 11.048 193.143 11.1051 193.163 11.1679C193.184 11.2307 193.189 11.2974 193.177 11.3624V24.2427C193.189 24.3077 193.184 24.3744 193.163 24.4372C193.143 24.5 193.108 24.5571 193.06 24.6037C193.013 24.6503 192.955 24.6851 192.891 24.7052C192.828 24.7253 192.76 24.7301 192.694 24.7192H192.007C191.941 24.7301 191.874 24.7253 191.81 24.7052C191.746 24.6851 191.689 24.6503 191.641 24.6037C191.594 24.5571 191.559 24.5 191.538 24.4372C191.518 24.3744 191.513 24.3077 191.524 24.2427V13.6074L184.275 24.3179C184.198 24.4449 184.087 24.5491 183.955 24.6197C183.823 24.6902 183.674 24.7246 183.524 24.7192H182.354C182.288 24.7301 182.221 24.7253 182.157 24.7052C182.093 24.6851 182.036 24.6503 181.988 24.6037C181.941 24.5571 181.906 24.5 181.885 24.4372C181.865 24.3744 181.86 24.3077 181.871 24.2427ZM79.3507 23.6657C79.3507 23.3397 79.1981 23.1766 78.8674 23.1766H70.5116V18.5613H77.354C77.4199 18.5722 77.4875 18.5674 77.5512 18.5473C77.6149 18.5272 77.6728 18.4924 77.7201 18.4458C77.7674 18.3991 77.8027 18.3421 77.8231 18.2793C77.8434 18.2165 77.8483 18.1498 77.8372 18.0847V17.5078C77.8483 17.4428 77.8434 17.3761 77.8231 17.3133C77.8027 17.2505 77.7674 17.1934 77.7201 17.1468C77.6728 17.1001 77.6149 17.0653 77.5512 17.0452C77.4875 17.0251 77.4199 17.0203 77.354 17.0312H70.5116V12.4159H78.8674C78.9334 12.4268 79.001 12.422 79.0647 12.4019C79.1284 12.3818 79.1863 12.347 79.2335 12.3004C79.2808 12.2538 79.3161 12.1967 79.3365 12.1339C79.3569 12.0711 79.3618 12.0044 79.3507 11.9393V11.3624C79.3618 11.2974 79.3569 11.2307 79.3365 11.1679C79.3161 11.1051 79.2808 11.048 79.2335 11.0014C79.1863 10.9547 79.1284 10.9199 79.0647 10.8998C79.001 10.8797 78.9334 10.8749 78.8674 10.8858H69.3416C69.2756 10.8749 69.208 10.8797 69.1443 10.8998C69.0806 10.9199 69.0227 10.9547 68.9754 11.0014C68.9282 11.048 68.8929 11.1051 68.8725 11.1679C68.8521 11.2307 68.8472 11.2974 68.8583 11.3624V24.2427C68.8472 24.3077 68.8521 24.3744 68.8725 24.4372C68.8929 24.5 68.9282 24.5571 68.9754 24.6037C69.0227 24.6503 69.0806 24.6851 69.1443 24.7052C69.208 24.7253 69.2756 24.7301 69.3416 24.7192H78.8674C78.9334 24.7301 79.001 24.7253 79.0647 24.7052C79.1284 24.6851 79.1863 24.6503 79.2335 24.6037C79.2808 24.5571 79.3161 24.5 79.3365 24.4372C79.3569 24.3744 79.3618 24.3077 79.3507 24.2427V23.6657ZM90.5426 19.3765C92.4122 19.3765 93.0862 18.9626 93.0862 17.3448V12.9176C93.0862 11.2872 92.3867 10.8858 90.5426 10.8858H82.1995C82.1336 10.8749 82.066 10.8797 82.0023 10.8998C81.9386 10.9199 81.8807 10.9547 81.8334 11.0014C81.7861 11.048 81.7508 11.1051 81.7305 11.1679C81.7101 11.2307 81.7052 11.2974 81.7163 11.3624V24.2427C81.7052 24.3077 81.7101 24.3744 81.7305 24.4372C81.7508 24.5 81.7861 24.5571 81.8334 24.6037C81.8807 24.6503 81.9386 24.6851 82.0023 24.7052C82.066 24.7253 82.1336 24.7301 82.1995 24.7192H82.8736C82.9396 24.7301 83.0072 24.7253 83.0709 24.7052C83.1346 24.6851 83.1925 24.6503 83.2397 24.6037C83.287 24.5571 83.3223 24.5 83.3427 24.4372C83.3631 24.3744 83.3679 24.3077 83.3569 24.2427V19.3765H90.5426ZM83.3696 17.8715V12.4159H90.39C91.2421 12.4159 91.4329 12.5915 91.4329 13.181V17.1316C91.4329 17.6834 91.2675 17.8715 90.39 17.8715H83.3696ZM110.179 11.3624C110.19 11.2974 110.185 11.2307 110.165 11.1679C110.145 11.1051 110.109 11.048 110.062 11.0014C110.015 10.9547 109.957 10.9199 109.893 10.8998C109.83 10.8797 109.762 10.8749 109.696 10.8858H108.106C107.962 10.876 107.819 10.9138 107.699 10.9933C107.579 11.0728 107.49 11.1895 107.445 11.3248L103.083 22.3614L98.5677 11.3248C98.5228 11.1895 98.4333 11.0728 98.3135 10.9933C98.1937 10.9138 98.0504 10.876 97.9064 10.8858H96.2785C96.2125 10.8749 96.1449 10.8797 96.0812 10.8998C96.0175 10.9199 95.9596 10.9547 95.9123 11.0014C95.865 11.048 95.8297 11.1051 95.8094 11.1679C95.789 11.2307 95.7841 11.2974 95.7952 11.3624V24.2427C95.7841 24.3077 95.789 24.3744 95.8094 24.4372C95.8297 24.5 95.865 24.5571 95.9123 24.6037C95.9596 24.6503 96.0175 24.6851 96.0812 24.7052C96.1449 24.7253 96.2125 24.7301 96.2785 24.7192H96.9525C97.2832 24.7192 97.4485 24.5687 97.4485 24.2427V13.0305L101.976 24.3179C102.019 24.4522 102.106 24.5685 102.223 24.6482C102.341 24.7278 102.482 24.7661 102.625 24.7569H103.528C103.671 24.7646 103.814 24.7259 103.933 24.6467C104.052 24.5675 104.142 24.4521 104.189 24.3179L108.577 13.1057V24.2803C108.566 24.3453 108.571 24.412 108.591 24.4748C108.611 24.5376 108.647 24.5947 108.694 24.6413C108.741 24.688 108.799 24.7228 108.863 24.7429C108.927 24.763 108.994 24.7678 109.06 24.7569H109.747C109.813 24.7678 109.88 24.763 109.944 24.7429C110.008 24.7228 110.066 24.688 110.113 24.6413C110.16 24.5947 110.196 24.5376 110.216 24.4748C110.236 24.412 110.241 24.3453 110.23 24.2803V11.3624H110.179ZM125.683 12.9176C125.683 11.2872 124.983 10.8858 123.139 10.8858H115.979C114.109 10.8858 113.435 11.2872 113.435 12.9176V22.6875C113.435 24.3179 114.135 24.7192 115.979 24.7192H123.164C125.034 24.7192 125.708 24.3179 125.708 22.6875V12.9176H125.683ZM116.119 23.139C115.241 23.139 115.063 22.976 115.063 22.374V13.181C115.063 12.5915 115.241 12.4159 116.119 12.4159H123.012C123.864 12.4159 124.067 12.5915 124.067 13.181V22.4367C124.067 22.9885 123.889 23.1766 123.012 23.1766L116.119 23.139ZM138.579 12.3783C138.645 12.3892 138.712 12.3844 138.776 12.3643C138.84 12.3442 138.898 12.3094 138.945 12.2628C138.992 12.2161 139.027 12.159 139.048 12.0962C139.068 12.0334 139.073 11.9667 139.062 11.9017V11.3248C139.073 11.2598 139.068 11.1931 139.048 11.1303C139.027 11.0675 138.992 11.0104 138.945 10.9638C138.898 10.9171 138.84 10.8823 138.776 10.8622C138.712 10.8421 138.645 10.8373 138.579 10.8482H127.985C127.919 10.8373 127.851 10.8421 127.787 10.8622C127.724 10.8823 127.666 10.9171 127.618 10.9638C127.571 11.0104 127.536 11.0675 127.516 11.1303C127.495 11.1931 127.49 11.2598 127.501 11.3248V11.9017C127.49 11.9667 127.495 12.0334 127.516 12.0962C127.536 12.159 127.571 12.2161 127.618 12.2628C127.666 12.3094 127.724 12.3442 127.787 12.3643C127.851 12.3844 127.919 12.3892 127.985 12.3783H132.436V24.205C132.425 24.2701 132.43 24.3368 132.45 24.3996C132.471 24.4624 132.506 24.5195 132.553 24.5661C132.6 24.6127 132.658 24.6475 132.722 24.6676C132.786 24.6877 132.853 24.6925 132.919 24.6816H133.606C133.672 24.6925 133.74 24.6877 133.803 24.6676C133.867 24.6475 133.925 24.6127 133.972 24.5661C134.019 24.5195 134.055 24.4624 134.075 24.3996C134.095 24.3368 134.1 24.2701 134.089 24.205V12.4159L138.579 12.3783ZM151.399 23.6657C151.399 23.3397 151.246 23.1766 150.915 23.1766H142.56V18.5613H149.402C149.468 18.5722 149.535 18.5674 149.599 18.5473C149.663 18.5272 149.721 18.4924 149.768 18.4458C149.815 18.3991 149.851 18.3421 149.871 18.2793C149.891 18.2165 149.896 18.1498 149.885 18.0847V17.5078C149.896 17.4428 149.891 17.3761 149.871 17.3133C149.851 17.2505 149.815 17.1934 149.768 17.1468C149.721 17.1001 149.663 17.0653 149.599 17.0452C149.535 17.0251 149.468 17.0203 149.402 17.0312H142.56V12.4159H150.877C150.943 12.4268 151.011 12.422 151.074 12.4019C151.138 12.3818 151.196 12.347 151.243 12.3004C151.291 12.2538 151.326 12.1967 151.346 12.1339C151.367 12.0711 151.371 12.0044 151.36 11.9393V11.3624C151.371 11.2974 151.367 11.2307 151.346 11.1679C151.326 11.1051 151.291 11.048 151.243 11.0014C151.196 10.9547 151.138 10.9199 151.074 10.8998C151.011 10.8797 150.943 10.8749 150.877 10.8858H141.389C141.324 10.8749 141.256 10.8797 141.192 10.8998C141.129 10.9199 141.071 10.9547 141.023 11.0014C140.976 11.048 140.941 11.1051 140.92 11.1679C140.9 11.2307 140.895 11.2974 140.906 11.3624V24.2427C140.895 24.3077 140.9 24.3744 140.92 24.4372C140.941 24.5 140.976 24.5571 141.023 24.6037C141.071 24.6503 141.129 24.6851 141.192 24.7052C141.256 24.7253 141.324 24.7301 141.389 24.7192H150.877C150.943 24.7301 151.011 24.7253 151.074 24.7052C151.138 24.6851 151.196 24.6503 151.243 24.6037C151.291 24.5571 151.326 24.5 151.346 24.4372C151.367 24.3744 151.371 24.3077 151.36 24.2427V23.6657H151.399ZM164.46 11.2621C164.651 11.0113 164.6 10.8858 164.269 10.8858H163.43C163.279 10.8807 163.129 10.9124 162.994 10.978C162.859 11.0436 162.742 11.1412 162.654 11.2621L158.75 16.5296L154.934 11.2621C154.849 11.1366 154.734 11.0341 154.598 10.964C154.463 10.8939 154.311 10.8584 154.158 10.8608H153.243C152.912 10.8608 152.848 10.9987 153.039 11.2496L157.859 17.7963L153.065 24.3179C152.874 24.5687 152.925 24.6941 153.255 24.6941H154.133C154.284 24.6993 154.433 24.6676 154.569 24.602C154.704 24.5364 154.821 24.4388 154.909 24.3179L158.801 19.1257L162.705 24.3179C162.793 24.4388 162.91 24.5364 163.045 24.602C163.18 24.6676 163.33 24.6993 163.481 24.6941H164.295C164.625 24.6941 164.689 24.5687 164.485 24.3179L159.716 17.8214L164.511 11.2621H164.46ZM178.641 11.3624C178.652 11.2974 178.647 11.2307 178.627 11.1679C178.606 11.1051 178.571 11.048 178.524 11.0014C178.476 10.9547 178.418 10.9199 178.355 10.8998C178.291 10.8797 178.223 10.8749 178.157 10.8858H177.458C177.392 10.8749 177.324 10.8797 177.261 10.8998C177.197 10.9199 177.139 10.9547 177.092 11.0014C177.045 11.048 177.009 11.1051 176.989 11.1679C176.968 11.2307 176.964 11.2974 176.975 11.3624V17.0312H168.072V11.3624C168.083 11.2974 168.078 11.2307 168.058 11.1679C168.037 11.1051 168.002 11.048 167.955 11.0014C167.908 10.9547 167.85 10.9199 167.786 10.8998C167.722 10.8797 167.655 10.8749 167.589 10.8858H166.915C166.849 10.8749 166.781 10.8797 166.717 10.8998C166.654 10.9199 166.596 10.9547 166.549 11.0014C166.501 11.048 166.466 11.1051 166.446 11.1679C166.425 11.2307 166.42 11.2974 166.431 11.3624V24.2427C166.42 24.3077 166.425 24.3744 166.446 24.4372C166.466 24.5 166.501 24.5571 166.549 24.6037C166.596 24.6503 166.654 24.6851 166.717 24.7052C166.781 24.7253 166.849 24.7301 166.915 24.7192H167.589C167.655 24.7301 167.722 24.7253 167.786 24.7052C167.85 24.6851 167.908 24.6503 167.955 24.6037C168.002 24.5571 168.037 24.5 168.058 24.4372C168.078 24.3744 168.083 24.3077 168.072 24.2427V18.5613H176.975V24.2427C176.964 24.3077 176.968 24.3744 176.989 24.4372C177.009 24.5 177.045 24.5571 177.092 24.6037C177.139 24.6503 177.197 24.6851 177.261 24.7052C177.324 24.7253 177.392 24.7301 177.458 24.7192H178.157C178.223 24.7301 178.291 24.7253 178.355 24.7052C178.418 24.6851 178.476 24.6503 178.524 24.6037C178.571 24.5571 178.606 24.5 178.627 24.4372C178.647 24.3744 178.652 24.3077 178.641 24.2427V11.3624ZM207.892 11.1743C208.096 11.0113 208.045 10.8858 207.791 10.8858H206.366C206.05 10.8766 205.742 10.9839 205.501 11.1868L198.01 17.0689V11.3624C198.021 11.2974 198.017 11.2307 197.996 11.1679C197.976 11.1051 197.94 11.048 197.893 11.0014C197.846 10.9547 197.788 10.9199 197.724 10.8998C197.661 10.8797 197.593 10.8749 197.527 10.8858H196.853C196.787 10.8749 196.719 10.8797 196.656 10.8998C196.592 10.9199 196.534 10.9547 196.487 11.0014C196.44 11.048 196.404 11.1051 196.384 11.1679C196.364 11.2307 196.359 11.2974 196.37 11.3624V24.2427C196.359 24.3077 196.364 24.3744 196.384 24.4372C196.404 24.5 196.44 24.5571 196.487 24.6037C196.534 24.6503 196.592 24.6851 196.656 24.7052C196.719 24.7253 196.787 24.7301 196.853 24.7192H197.527C197.593 24.7301 197.661 24.7253 197.724 24.7052C197.788 24.6851 197.846 24.6503 197.893 24.6037C197.94 24.5571 197.976 24.5 197.996 24.4372C198.017 24.3744 198.021 24.3077 198.01 24.2427V18.7244L205.565 24.3932C205.811 24.5846 206.116 24.6865 206.43 24.6816H207.854C208.108 24.6816 208.159 24.5437 207.956 24.3932L199.206 17.7963L207.918 11.1743H207.892ZM221.488 12.9176C221.488 11.2872 220.788 10.8858 218.944 10.8858H212.585C210.716 10.8858 210.042 11.2872 210.042 12.9176V24.205C210.031 24.2701 210.035 24.3368 210.056 24.3996C210.076 24.4624 210.111 24.5195 210.159 24.5661C210.206 24.6127 210.264 24.6475 210.328 24.6676C210.391 24.6877 210.459 24.6925 210.525 24.6816H211.212C211.278 24.6925 211.345 24.6877 211.409 24.6676C211.473 24.6475 211.531 24.6127 211.578 24.5661C211.625 24.5195 211.66 24.4624 211.681 24.3996C211.701 24.3368 211.706 24.2701 211.695 24.205V19.5646H219.949V24.205C219.938 24.2701 219.943 24.3368 219.963 24.3996C219.984 24.4624 220.019 24.5195 220.066 24.5661C220.113 24.6127 220.171 24.6475 220.235 24.6676C220.299 24.6877 220.366 24.6925 220.432 24.6816H221.119C221.185 24.6925 221.253 24.6877 221.316 24.6676C221.38 24.6475 221.438 24.6127 221.485 24.5661C221.532 24.5195 221.568 24.4624 221.588 24.3996C221.609 24.3368 221.613 24.2701 221.602 24.205V12.9176H221.488ZM211.581 13.181C211.581 12.5915 211.759 12.4159 212.623 12.4159H218.792C219.644 12.4159 219.835 12.5915 219.835 13.181V18.1224H211.581V13.181Z" fill="white"/>
<path fill-rule="evenodd" clip-rule="evenodd" d="M55.8165 36.6338V33.7242H58.0294V36.6338H58.3601V33.4106H55.4858V36.6338H55.8165ZM59.7337 36.6338V35.3797H61.5142C61.9848 35.3797 62.3663 35.0912 62.3663 34.3763C62.3663 33.6615 61.9848 33.373 61.5142 33.373H59.403V36.5962L59.7337 36.6338ZM61.5142 33.7242C61.8067 33.7242 62.0484 33.9248 62.0484 34.414C62.0484 34.9031 61.8067 35.1037 61.5142 35.1037H59.7337V33.7242H61.5142ZM64.77 36.6965C65.195 36.6602 65.5906 36.4681 65.8789 36.1581C66.1672 35.8482 66.3272 35.4428 66.3272 35.0222C66.3272 34.6016 66.1672 34.1963 65.8789 33.8863C65.5906 33.5763 65.195 33.3842 64.77 33.3479C64.5347 33.3278 64.2977 33.3562 64.0741 33.4312C63.8505 33.5062 63.6451 33.6262 63.471 33.7837C63.297 33.9411 63.158 34.1325 63.0629 34.3457C62.9678 34.5589 62.9187 34.7893 62.9187 35.0222C62.9187 35.2551 62.9678 35.4855 63.0629 35.6987C63.158 35.912 63.297 36.1034 63.471 36.2608C63.6451 36.4182 63.8505 36.5383 64.0741 36.6133C64.2977 36.6883 64.5347 36.7166 64.77 36.6965ZM66.1309 35.0285C66.1611 35.212 66.1469 35.4 66.0894 35.5771C66.0319 35.7541 65.9328 35.9153 65.8001 36.0474C65.6674 36.1794 65.5049 36.2787 65.3259 36.337C65.1469 36.3954 64.9564 36.4111 64.77 36.383C64.5816 36.4044 64.3906 36.384 64.2112 36.3233C64.0318 36.2626 63.8684 36.163 63.7331 36.032C63.5977 35.9009 63.4938 35.7416 63.429 35.5658C63.3641 35.39 63.34 35.2021 63.3583 35.016C63.3281 34.8324 63.3423 34.6445 63.3997 34.4674C63.4572 34.2903 63.5564 34.1292 63.6891 33.9971C63.8218 33.865 63.9843 33.7657 64.1633 33.7074C64.3423 33.6491 64.5328 33.6333 64.7191 33.6615C64.9056 33.644 65.0937 33.6674 65.2699 33.7299C65.4461 33.7924 65.6062 33.8926 65.7386 34.0232C65.871 34.1538 65.9726 34.3116 66.036 34.4854C66.0994 34.6592 66.1231 34.8446 66.1054 35.0285H66.1309ZM67.5934 36.6338L70.0353 33.9499V36.6338H70.366V33.4106H70.0989L67.657 36.0945V33.4106H67.3264V36.6338H67.5934ZM72.4772 36.383C72.051 36.3877 71.6253 36.3541 71.2054 36.2827V36.5962C71.6478 36.658 72.0939 36.6915 72.5408 36.6965C73.2403 36.6965 73.9906 36.5586 73.9906 35.8312C73.9906 35.3671 73.6727 35.1288 73.2021 35.016C73.4044 34.994 73.5911 34.8982 73.7253 34.7473C73.8594 34.5964 73.9314 34.4014 73.927 34.2007C73.927 33.4859 73.2275 33.3479 72.5535 33.3479C72.1277 33.3531 71.7028 33.3866 71.2817 33.4483V33.7618C71.7019 33.6926 72.1274 33.659 72.5535 33.6615C73.0622 33.6615 73.5964 33.6615 73.5964 34.2258C73.5964 34.7902 73.1767 34.8404 72.5535 34.8404H71.8921V35.2041H72.5535C73.164 35.2041 73.6727 35.3671 73.6727 35.8312C73.6727 36.2952 73.0495 36.383 72.5408 36.383H72.4772ZM77.0684 36.6338C77.2502 36.606 77.4185 36.5225 77.5496 36.3951C77.6807 36.2678 77.7678 36.103 77.7988 35.9242C77.8297 35.7453 77.8028 35.5614 77.722 35.3984C77.6411 35.2355 77.5104 35.1017 77.3482 35.016C77.4862 34.9403 77.5984 34.8261 77.6708 34.6878C77.7432 34.5495 77.7726 34.3931 77.7552 34.2384C77.7684 34.1308 77.7575 34.0218 77.7233 33.9188C77.6891 33.8159 77.6324 33.7216 77.5572 33.6427C77.482 33.5638 77.3901 33.5021 77.2881 33.462C77.186 33.4219 77.0763 33.4043 76.9667 33.4106H74.8046V36.6338H77.0684ZM77.0684 35.179C77.3228 35.179 77.5263 35.3671 77.5263 35.7684C77.5263 36.1698 77.3228 36.3203 77.0684 36.3203H75.0971V35.179H77.0684ZM77.0684 33.7492C77.31 33.7492 77.5263 33.8747 77.5263 34.276C77.5263 34.6773 77.31 34.8654 77.0684 34.8654H75.0971V33.7492H77.0684ZM80.3115 36.6965C80.7364 36.6602 81.1321 36.4681 81.4204 36.1581C81.7087 35.8482 81.8687 35.4428 81.8687 35.0222C81.8687 34.6016 81.7087 34.1963 81.4204 33.8863C81.1321 33.5763 80.7364 33.3842 80.3115 33.3479C80.0815 33.314 79.8465 33.3338 79.6256 33.4057C79.4047 33.4775 79.204 33.5994 79.0395 33.7616C78.875 33.9238 78.7514 34.1218 78.6786 34.3396C78.6057 34.5574 78.5856 34.7891 78.62 35.016C78.5884 35.244 78.6108 35.4761 78.6853 35.6942C78.7598 35.9122 78.8844 36.1104 79.0494 36.2731C79.2144 36.4358 79.4153 36.5587 79.6365 36.6322C79.8576 36.7056 80.093 36.7276 80.3242 36.6965H80.3115ZM81.6851 35.0285C81.6851 35.2064 81.6495 35.3825 81.5805 35.5468C81.5115 35.7112 81.4103 35.8605 81.2828 35.9863C81.1552 36.112 81.0038 36.2118 80.8371 36.2799C80.6705 36.348 80.4919 36.383 80.3115 36.383C80.1311 36.383 79.9525 36.348 79.7859 36.2799C79.6192 36.2118 79.4678 36.112 79.3403 35.9863C79.2127 35.8605 79.1115 35.7112 79.0425 35.5468C78.9735 35.3825 78.938 35.2064 78.938 35.0285C78.938 33.9374 79.5611 33.674 80.2988 33.674C80.4852 33.6566 80.6733 33.6799 80.8495 33.7425C81.0258 33.805 81.1858 33.9051 81.3183 34.0357C81.4507 34.1663 81.5522 34.3241 81.6156 34.4979C81.6791 34.6717 81.7028 34.8572 81.6851 35.041V35.0285ZM82.8424 37.4114V36.6338H85.7803V37.4114H86.0982V36.3203H85.7167V33.4106H83.1858L83.084 35.1539C83.0965 35.5651 82.9859 35.9707 82.7661 36.3203H82.4354V36.4959V37.4114H82.8424ZM83.4529 35.1539L83.5419 33.7242H85.386V36.3203H83.1095C83.3233 35.9692 83.4252 35.5628 83.402 35.1539H83.4529ZM86.6197 34.9658C86.6197 36.3955 87.4845 36.6965 88.4256 36.6965C88.8175 36.6895 89.2085 36.656 89.5957 36.5962V36.2827C89.2396 36.3514 88.8775 36.385 88.5147 36.383C87.688 36.383 86.9631 36.1572 86.9631 34.9658C86.9631 33.7743 87.688 33.7116 88.4384 33.7116C88.8264 33.7119 89.2136 33.7455 89.5957 33.812V33.4984C89.1749 33.434 88.7498 33.4005 88.3239 33.3981C87.4464 33.3981 86.5688 33.5737 86.5688 35.016L86.6197 34.9658ZM91.7069 36.6338V33.7242H93.0423V33.4106H89.99V33.7242H91.3381V36.6338H91.7069ZM95.9929 36.6338C96.1784 36.6142 96.3527 36.5367 96.4906 36.4128C96.6284 36.2888 96.7226 36.1247 96.7594 35.9444C96.7963 35.764 96.7739 35.5768 96.6955 35.4098C96.6172 35.2429 96.4869 35.1049 96.3236 35.016C96.4581 34.9374 96.5668 34.8222 96.6367 34.6844C96.7066 34.5465 96.7348 34.3916 96.7178 34.2384C96.731 34.1308 96.7202 34.0218 96.686 33.9188C96.6517 33.8159 96.595 33.7216 96.5198 33.6427C96.4446 33.5638 96.3528 33.5021 96.2507 33.462C96.1487 33.4219 96.039 33.4043 95.9293 33.4106H93.7036V36.6338H95.9929ZM95.9929 35.179C96.2473 35.179 96.4508 35.3671 96.4508 35.7684C96.4508 36.1698 96.2473 36.3203 95.9929 36.3203H94.0343V35.179H95.9929ZM95.9293 33.7492C96.171 33.7492 96.3872 33.8747 96.3872 34.276C96.3872 34.6773 96.171 34.8654 95.9293 34.8654H94.0216V33.7492H95.9293ZM99.1851 36.6965C99.5222 36.6965 99.8517 36.598 100.132 36.4133C100.412 36.2286 100.631 35.9662 100.76 35.6591C100.889 35.352 100.922 35.0141 100.857 34.6881C100.791 34.3621 100.629 34.0626 100.39 33.8276C100.152 33.5926 99.8482 33.4325 99.5176 33.3677C99.187 33.3028 98.8444 33.3361 98.533 33.4633C98.2216 33.5905 97.9554 33.8059 97.7681 34.0823C97.5809 34.3586 97.4809 34.6836 97.4809 35.016C97.4438 35.245 97.4622 35.4794 97.5348 35.7C97.6073 35.9206 97.7318 36.1211 97.8981 36.2851C98.0644 36.4491 98.2677 36.5719 98.4915 36.6434C98.7152 36.7149 98.9529 36.7331 99.1851 36.6965ZM100.546 35.0285C100.576 35.212 100.562 35.4 100.505 35.5771C100.447 35.7541 100.348 35.9153 100.215 36.0474C100.083 36.1794 99.92 36.2787 99.741 36.337C99.562 36.3954 99.3715 36.4111 99.1851 36.383C98.9987 36.4004 98.8106 36.3771 98.6344 36.3145C98.4582 36.252 98.2981 36.1519 98.1657 36.0213C98.0332 35.8907 97.9317 35.7328 97.8683 35.5591C97.8049 35.3853 97.7812 35.1998 97.7989 35.016C97.7686 34.8324 97.7828 34.6445 97.8403 34.4674C97.8978 34.2903 97.9969 34.1292 98.1296 33.9971C98.2623 33.865 98.4248 33.7657 98.6038 33.7074C98.7829 33.6491 98.9733 33.6333 99.1597 33.6615C99.3462 33.644 99.5342 33.6674 99.7104 33.7299C99.8867 33.7924 100.047 33.8926 100.179 34.0232C100.312 34.1538 100.413 34.3116 100.477 34.4854C100.54 34.6592 100.564 34.8446 100.546 35.0285ZM103.827 36.6338L106.269 33.9499V36.6338H106.6V33.4106H106.345L103.891 36.0945V33.4106H103.56V36.6338H103.827ZM113.035 36.6338V33.4106H112.755L111.267 35.6807L109.767 33.4608H109.474V36.684H109.805V34.0502L111.077 35.9817H111.356L112.628 34.0502V36.6338H113.035ZM115.579 36.6338C115.916 36.6338 116.245 36.5353 116.526 36.3506C116.806 36.1659 117.024 35.9035 117.153 35.5964C117.282 35.2893 117.316 34.9514 117.25 34.6254C117.184 34.2994 117.022 33.9999 116.784 33.7649C116.545 33.5299 116.242 33.3698 115.911 33.305C115.581 33.2401 115.238 33.2734 114.927 33.4006C114.615 33.5278 114.349 33.7432 114.162 34.0196C113.974 34.2959 113.875 34.6209 113.875 34.9532C113.84 35.1818 113.861 35.415 113.934 35.6343C114.008 35.8537 114.132 36.053 114.298 36.2163C114.464 36.3796 114.666 36.5025 114.888 36.575C115.11 36.6475 115.347 36.6676 115.579 36.6338ZM116.952 34.9658C116.952 35.325 116.808 35.6695 116.55 35.9236C116.292 36.1776 115.943 36.3203 115.579 36.3203C115.214 36.3203 114.865 36.1776 114.607 35.9236C114.35 35.6695 114.205 35.325 114.205 34.9658C114.205 33.8747 114.828 33.6113 115.566 33.6113C115.752 33.5938 115.941 33.6172 116.117 33.6798C116.293 33.7423 116.453 33.8424 116.585 33.973C116.718 34.1036 116.819 34.2614 116.883 34.4352C116.946 34.609 116.97 34.7945 116.952 34.9783V34.9658ZM118.466 36.5711V35.179H121.009V36.6338H121.34V33.4106H121.009V34.8654H118.466V33.4106H118.135V36.6338L118.466 36.5711ZM123.629 36.5711V33.7242H124.901V33.4106H121.963V33.7242H123.362V36.6338L123.629 36.5711ZM127.89 36.5711L127.508 35.8186H125.435L125.054 36.5711H124.685L126.364 33.3479H126.643L128.31 36.5711H127.89ZM126.453 33.7743L125.537 35.5427H127.356L126.453 33.7743ZM128.818 36.5711L130.09 35.1163H130.497V36.5711H130.815V35.179H131.222L132.494 36.6338H132.926L131.464 35.0285L132.926 33.4106H132.494L131.222 34.8654H130.815V33.4106H130.497V34.8654H130.09L128.818 33.4106H128.386L129.861 35.0285L128.386 36.6338L128.818 36.5711ZM136.258 36.5711V35.179H137.123L138.395 36.6338H138.815L137.352 35.0285L138.815 33.4106H138.395L137.123 34.8654H136.296V33.4106H135.979V36.6338L136.258 36.5711ZM141.015 36.5711C141.352 36.5736 141.683 36.4771 141.965 36.294C142.247 36.1109 142.467 35.8493 142.598 35.5424C142.729 35.2355 142.765 34.8972 142.701 34.5704C142.636 34.2436 142.475 33.943 142.237 33.7067C141.999 33.4704 141.696 33.3091 141.365 33.2432C141.034 33.1774 140.691 33.2099 140.378 33.3367C140.066 33.4635 139.799 33.6789 139.612 33.9556C139.424 34.2322 139.323 34.5576 139.323 34.8905C139.29 35.1179 139.31 35.3498 139.383 35.568C139.456 35.7863 139.579 35.9848 139.743 36.1478C139.907 36.3109 140.108 36.434 140.328 36.5075C140.549 36.581 140.784 36.6027 141.015 36.5711ZM142.388 34.9031C142.388 35.2623 142.244 35.6068 141.986 35.8609C141.729 36.1149 141.379 36.2576 141.015 36.2576C140.651 36.2576 140.301 36.1149 140.044 35.8609C139.786 35.6068 139.641 35.2623 139.641 34.9031C139.641 33.812 140.265 33.5486 141.002 33.5486C141.189 33.5311 141.377 33.5545 141.553 33.617C141.729 33.6796 141.889 33.7797 142.022 33.9103C142.154 34.0409 142.256 34.1987 142.319 34.3725C142.382 34.5463 142.406 34.7318 142.388 34.9156V34.9031ZM144.932 36.5084V33.7242H146.204V33.4106H143.215V33.7242H144.614V36.6338L144.932 36.5084ZM149.511 36.5084V33.4106H146.967L146.865 35.919C146.865 36.3077 146.7 36.3704 146.484 36.3704H146.344V36.6714H146.573C146.929 36.6714 147.209 36.546 147.209 35.9064L147.298 33.7242H149.205V36.6338L149.511 36.5084ZM152.054 36.5084C152.391 36.5084 152.721 36.4098 153.001 36.2252C153.281 36.0405 153.5 35.778 153.629 35.471C153.758 35.1639 153.791 34.826 153.726 34.5C153.66 34.174 153.498 33.8745 153.259 33.6395C153.021 33.4044 152.717 33.2444 152.387 33.1795C152.056 33.1147 151.713 33.148 151.402 33.2752C151.091 33.4024 150.824 33.6178 150.637 33.8942C150.45 34.1705 150.35 34.4954 150.35 34.8278C150.313 35.0568 150.331 35.2913 150.404 35.5119C150.476 35.7325 150.601 35.933 150.767 36.097C150.933 36.261 151.137 36.3838 151.361 36.4553C151.584 36.5268 151.822 36.545 152.054 36.5084ZM153.415 34.8404C153.445 35.0239 153.431 35.2119 153.374 35.3889C153.316 35.566 153.217 35.7272 153.084 35.8592C152.952 35.9913 152.789 36.0906 152.61 36.1489C152.431 36.2072 152.241 36.223 152.054 36.1949C151.868 36.2123 151.68 36.1889 151.503 36.1264C151.327 36.0639 151.167 35.9637 151.035 35.8331C150.902 35.7025 150.801 35.5447 150.737 35.3709C150.674 35.1971 150.65 35.0117 150.668 34.8278C150.638 34.6443 150.652 34.4563 150.709 34.2793C150.767 34.1022 150.866 33.941 150.999 33.809C151.131 33.6769 151.294 33.5776 151.473 33.5193C151.652 33.461 151.842 33.4452 152.029 33.4733C152.215 33.4559 152.403 33.4793 152.579 33.5418C152.756 33.6043 152.916 33.7045 153.048 33.8351C153.181 33.9657 153.282 34.1235 153.346 34.2973C153.409 34.4711 153.433 34.6565 153.415 34.8404ZM156.912 36.4457C157.098 36.426 157.272 36.3486 157.41 36.2246C157.548 36.1007 157.642 35.9366 157.679 35.7562C157.716 35.5759 157.694 35.3887 157.615 35.2217C157.537 35.0548 157.406 34.9168 157.243 34.8278C157.378 34.7492 157.486 34.6341 157.556 34.4962C157.626 34.3583 157.654 34.2035 157.637 34.0502C157.651 33.9427 157.64 33.8336 157.606 33.7307C157.571 33.6278 157.515 33.5335 157.439 33.4546C157.364 33.3756 157.272 33.3139 157.17 33.2738C157.068 33.2337 156.959 33.2162 156.849 33.2225H154.649V36.4457H156.912ZM156.912 34.9909C157.154 34.9909 157.37 35.179 157.37 35.5803C157.37 35.9817 157.154 36.1322 156.912 36.1322H154.928V35.179L156.912 34.9909ZM156.912 33.5611C157.154 33.5611 157.37 33.6865 157.37 34.0879C157.37 34.4892 157.154 34.6773 156.912 34.6773H154.928V33.5611H156.912ZM162 36.5084C162.337 36.5109 162.668 36.4144 162.95 36.2313C163.232 36.0481 163.452 35.7865 163.583 35.4797C163.714 35.1728 163.75 34.8345 163.685 34.5077C163.621 34.1809 163.46 33.8803 163.222 33.644C162.984 33.4077 162.681 33.2464 162.35 33.1805C162.019 33.1146 161.675 33.1472 161.363 33.274C161.051 33.4008 160.784 33.6162 160.596 33.8929C160.409 34.1695 160.308 34.4949 160.308 34.8278C160.274 35.0551 160.295 35.2871 160.368 35.5053C160.44 35.7236 160.564 35.9221 160.728 36.0851C160.892 36.2482 161.092 36.3713 161.313 36.4448C161.534 36.5183 161.769 36.54 162 36.5084ZM163.373 34.8404C163.373 35.0182 163.338 35.1944 163.269 35.3587C163.2 35.5231 163.099 35.6724 162.971 35.7981C162.843 35.9239 162.692 36.0237 162.525 36.0918C162.359 36.1598 162.18 36.1949 162 36.1949C161.819 36.1949 161.641 36.1598 161.474 36.0918C161.307 36.0237 161.156 35.9239 161.028 35.7981C160.901 35.6724 160.8 35.5231 160.731 35.3587C160.662 35.1944 160.626 35.0182 160.626 34.8404C160.626 33.7493 161.249 33.4859 161.987 33.4859C162.173 33.4684 162.362 33.4918 162.538 33.5543C162.714 33.6169 162.874 33.717 163.006 33.8476C163.139 33.9782 163.24 34.136 163.304 34.3098C163.367 34.4836 163.391 34.669 163.373 34.8529V34.8404ZM165.917 36.4457V33.7242H167.189V33.4106H164.098V33.7242H165.497V36.6338L165.917 36.4457ZM169.427 36.4457C169.77 36.4268 170.1 36.306 170.372 36.0991C170.644 35.8922 170.847 35.609 170.953 35.2865C171.059 34.9641 171.064 34.6175 170.967 34.2923C170.869 33.9672 170.675 33.6786 170.408 33.4646C170.142 33.2505 169.816 33.1209 169.473 33.0929C169.13 33.0649 168.787 33.1397 168.489 33.3075C168.19 33.4753 167.95 33.7283 167.799 34.0332C167.649 34.3381 167.596 34.6807 167.647 35.016C167.613 35.2433 167.633 35.4752 167.706 35.6934C167.779 35.9117 167.902 36.1102 168.066 36.2732C168.23 36.4363 168.431 36.5594 168.651 36.6329C168.872 36.7064 169.107 36.7282 169.338 36.6965L169.427 36.4457ZM170.801 34.7777C170.801 35.1369 170.656 35.4814 170.398 35.7354C170.141 35.9895 169.791 36.1322 169.427 36.1322C169.063 36.1322 168.713 35.9895 168.456 35.7354C168.198 35.4814 168.054 35.1369 168.054 34.7777C168.054 33.6865 168.677 33.4232 169.414 33.4232C169.601 33.4057 169.789 33.4291 169.965 33.4916C170.141 33.5542 170.301 33.6543 170.434 33.7849C170.566 33.9155 170.668 34.0733 170.731 34.2471C170.795 34.4209 170.818 34.6063 170.801 34.7902V34.7777ZM172.314 36.383V33.7242H174.54V36.6338H174.87V33.4106H171.983V36.6338L172.314 36.383ZM178.673 36.383V33.4106H176.13L176.015 35.919C176.015 36.3077 175.85 36.3704 175.634 36.3704H175.494V36.6714H175.723C176.079 36.6714 176.371 36.546 176.371 35.9064L176.46 33.7367H178.368V36.6464L178.673 36.383ZM182.489 36.383V36.0694H180.072V35.179H182.183V34.8654H180.047V33.7242H182.425V33.4106H179.691V36.6338L182.489 36.383ZM183.633 36.383V35.179H186.177V36.6338H186.507V33.4106H186.177V34.8654H183.633V33.4106H183.303V36.6338L183.633 36.383ZM187.767 36.383L190.208 33.6991V36.383H190.539V33.4106H190.272L187.817 36.0945V33.4106H187.487V36.6338L187.767 36.383ZM191.671 36.383L192.777 35.1288H193.833V36.383H194.164V33.4106H191.938C191.455 33.4106 191.073 33.6991 191.073 34.414C191.073 35.1288 191.455 35.4173 191.938 35.4173H192.218L191.124 36.6714L191.671 36.383ZM191.544 34.1631C191.544 33.674 191.785 33.4733 192.078 33.4733H193.833V34.8529H191.938C191.646 35.1037 191.404 34.9031 191.404 34.4265L191.544 34.1631Z" fill="#C8A76C" stroke="#C8A76C" stroke-width="0.200988" stroke-miterlimit="22.93"/>
</g>
<defs>
<linearGradient id="paint0_linear" x1="-28.8693" y1="-8.53805" x2="51.2574" y2="57.947" gradientUnits="userSpaceOnUse">
<stop stop-color="#C8A76C"/>
<stop offset="0.25" stop-color="#F5DFB5"/>
<stop offset="0.71" stop-color="#C8A76C"/>
<stop offset="1" stop-color="#C8A76C"/>
</linearGradient>
<linearGradient id="paint1_linear" x1="710.356" y1="486.209" x2="1310.74" y2="665.122" gradientUnits="userSpaceOnUse">
<stop stop-color="#C8A76C"/>
<stop offset="0.25" stop-color="#F5DFB5"/>
<stop offset="0.71" stop-color="#C8A76C"/>
<stop offset="1" stop-color="#C8A76C"/>
</linearGradient>
<linearGradient id="paint2_linear" x1="972.381" y1="223.36" x2="2353.45" y2="730.247" gradientUnits="userSpaceOnUse">
<stop stop-color="#C8A76C"/>
<stop offset="0.25" stop-color="#F5DFB5"/>
<stop offset="0.71" stop-color="#C8A76C"/>
<stop offset="1" stop-color="#C8A76C"/>
</linearGradient>
<linearGradient id="paint3_linear" x1="228.33" y1="234.254" x2="1153.73" y2="510.066" gradientUnits="userSpaceOnUse">
<stop stop-color="#C8A76C"/>
<stop offset="0.25" stop-color="#F5DFB5"/>
<stop offset="0.71" stop-color="#C8A76C"/>
<stop offset="1" stop-color="#C8A76C"/>
</linearGradient>
<linearGradient id="paint4_linear" x1="1929.5" y1="-114.503" x2="2143.05" y2="512.518" gradientUnits="userSpaceOnUse">
<stop stop-color="#C8A76C"/>
<stop offset="0.25" stop-color="#F5DFB5"/>
<stop offset="0.71" stop-color="#C8A76C"/>
<stop offset="1" stop-color="#C8A76C"/>
</linearGradient>
<clipPath id="clip0">
<rect width="222" height="48.4198" fill="white"/>
</clipPath>
</defs>
</svg>
