<svg width="56" height="40" viewBox="0 0 56 40" fill="none" xmlns="http://www.w3.org/2000/svg">
<path d="M51.3333 0.400024H4.66667C2.09067 0.403058 0.00303333 2.49069 0 5.06669V34.9334C0.00303333 37.5094 2.09067 39.597 4.66667 39.6H51.3333C51.5952 39.6011 51.8567 39.5782 52.1145 39.5319C54.3603 39.156 56.0043 37.2103 56 34.9334V5.06669C55.997 2.49057 53.9093 0.403058 51.3333 0.400024ZM4.66667 37.7334C3.21592 37.7331 2.0055 36.6249 1.87787 35.1798L20.4867 23.0128L39.4109 37.7334H4.66667ZM54.1333 34.9334C54.1348 36.3033 53.1426 37.4721 51.7907 37.6932C51.6397 37.7204 51.4866 37.7338 51.3333 37.7334H42.4508L30.0851 28.1098L41.1432 19.2674L54.1333 27.0616V34.9334ZM54.1333 24.8851L41.5473 17.3335C41.2127 17.1322 40.7883 17.1606 40.4833 17.4044L28.5675 26.9338L21.1055 21.1303C20.791 20.886 20.3563 20.8679 20.0228 21.0855L1.86667 32.9566V5.06669C1.86667 3.52027 3.12025 2.26669 4.66667 2.26669H51.3333C52.8797 2.26669 54.1333 3.52027 54.1333 5.06669V24.8851Z" fill="#D1D1D1"/>
<path d="M28 6C24.9072 6 22.4 8.50717 22.4 11.6C22.4031 14.6915 24.9085 17.197 28 17.2C31.0929 17.2 33.6 14.6928 33.6 11.6C33.6 8.50717 31.0929 6 28 6ZM28 15.3333C25.9382 15.3333 24.2667 13.6618 24.2667 11.6C24.2667 9.53815 25.9382 7.86667 28 7.86667C30.0619 7.86667 31.7334 9.53815 31.7334 11.6C31.7334 13.6618 30.0619 15.3333 28 15.3333Z" fill="#D1D1D1"/>
</svg>
