<svg  class="main-svg-sprite main-svg-sprite--icons" xmlns="http://www.w3.org/2000/svg" xmlns:xlink="http://www.w3.org/1999/xlink"><symbol viewBox="0 0 24 24" id="close" xmlns="http://www.w3.org/2000/svg"><path d="M18.984 6.422 13.406 12l5.578 5.578-1.406 1.406L12 13.406l-5.578 5.578-1.406-1.406L10.594 12 5.016 6.422l1.406-1.406L12 10.594l5.578-5.578z"/></symbol><symbol viewBox="0 0 25 25" id="form-icon" xmlns="http://www.w3.org/2000/svg"><path d="M15.246 21.515a5.71 5.71 0 0 0 4.032-5.48 5.693 5.693 0 0 0-1.119-3.404.49.49 0 1 1 .793-.575 6.665 6.665 0 0 1 1.305 3.98 6.66 6.66 0 0 1-1.335 4.018 6.773 6.773 0 0 1-3.385 2.396.49.49 0 1 1-.29-.935Z"/><path d="M2.698 11.44c0-.932.29-1.82.84-2.569l3.099-4.6a.49.49 0 0 1 .812 0l1.306 1.938L12.792.216a.49.49 0 0 1 .812 0l6.93 10.288a9.034 9.034 0 0 1 1.768 5.392c0 5.02-4.084 9.104-9.104 9.104s-9.104-4.084-9.104-9.104c0-.4.027-.802.079-1.198a4.335 4.335 0 0 1-1.475-3.258Zm4.345-6.02L4.35 9.419a3.338 3.338 0 0 0-.673 2.022 3.37 3.37 0 0 0 3.366 3.365 3.37 3.37 0 0 0 3.365-3.365 3.339 3.339 0 0 0-.672-2.021L8.349 7.36l-.007-.012-1.3-1.928Zm-1.97 10.476c0 4.48 3.645 8.125 8.125 8.125s8.125-3.645 8.125-8.125a8.061 8.061 0 0 0-1.601-4.846l-6.524-9.684-3.853 5.72 1.203 1.785c.55.749.84 1.637.84 2.569a4.35 4.35 0 0 1-4.345 4.344c-.7 0-1.363-.167-1.95-.462-.013.19-.02.382-.02.574Z"/><path d="M8.769 11.32c0-.237-.049-.466-.144-.68a.49.49 0 1 1 .895-.398 2.654 2.654 0 0 1-.953 3.287.487.487 0 0 1-.679-.135.49.49 0 0 1 .135-.679c.467-.312.746-.834.746-1.395ZM13.43 22.193c.12-.315.567-.405.799-.159a.492.492 0 0 1-.251.826c-.375.082-.701-.316-.548-.667ZM7.3 13.975a.492.492 0 0 1-.76-.406c-.008-.384.445-.627.76-.408.286.18.288.636 0 .814Z"/></symbol><symbol viewBox="0 0 26 25" id="form-icon2" xmlns="http://www.w3.org/2000/svg"><path clip-rule="evenodd" d="M15.243 14.267V3.025A3.028 3.028 0 0 0 12.218 0a3.029 3.029 0 0 0-3.026 3.025v11.242a5.81 5.81 0 0 0-2.375 2.843.488.488 0 1 0 .91.354 4.832 4.832 0 0 1 2.187-2.487.488.488 0 0 0 .255-.43V3.026A2.05 2.05 0 0 1 12.218.977a2.05 2.05 0 0 1 2.048 2.048v11.523c0 .179.098.343.255.428a4.818 4.818 0 0 1 2.513 4.231 4.822 4.822 0 0 1-4.817 4.816 4.787 4.787 0 0 1-4.49-3.072.488.488 0 0 0-.91.353 5.77 5.77 0 0 0 2.128 2.684A5.773 5.773 0 0 0 12.218 25a5.8 5.8 0 0 0 5.792-5.793 5.793 5.793 0 0 0-2.767-4.94Z"/><path clip-rule="evenodd" d="M12.217 4.267a.488.488 0 0 0-.488.488v11.117a3.376 3.376 0 0 0-2.882 3.335 3.375 3.375 0 0 0 3.37 3.371 3.375 3.375 0 0 0 3.372-3.37 3.376 3.376 0 0 0-2.883-3.336V4.755a.488.488 0 0 0-.489-.488Zm2.395 14.94a2.397 2.397 0 0 1-2.395 2.395 2.397 2.397 0 0 1-2.394-2.395 2.397 2.397 0 0 1 2.394-2.394 2.397 2.397 0 0 1 2.395 2.394ZM17.086 5.615h2.537a.488.488 0 1 0 0-.977h-2.537a.488.488 0 1 0 0 .977ZM19.623 6.893h-2.537a.488.488 0 1 0 0 .977h2.537a.488.488 0 0 0 0-.977ZM19.623 9.148h-2.537a.488.488 0 1 0 0 .977h2.537a.488.488 0 1 0 0-.977ZM19.623 11.403h-2.537a.488.488 0 0 0 0 .977h2.537a.488.488 0 1 0 0-.977ZM7.402 19.207a.49.49 0 0 0-.977 0 .49.49 0 0 0 .977 0Z"/></symbol><symbol viewBox="0 0 26 25" id="form-icon3" xmlns="http://www.w3.org/2000/svg"><g clip-path="url(#da)"><path d="M12.75 0C5.857 0 .25 5.607.25 12.5c0 6.892 5.607 12.5 12.5 12.5 6.892 0 12.5-5.608 12.5-12.5 0-6.893-5.608-12.5-12.5-12.5Zm0 23.698c-6.175 0-11.198-5.023-11.198-11.198 0-6.175 5.023-11.198 11.198-11.198 6.175 0 11.198 5.023 11.198 11.198 0 6.175-5.023 11.198-11.198 11.198Z"/><path d="M16.79 5.62a.65.65 0 0 0-.66 1.121 6.708 6.708 0 0 1 3.296 5.759 6.684 6.684 0 0 1-6.676 6.676A6.684 6.684 0 0 1 6.074 12.5 6.708 6.708 0 0 1 9.37 6.741a.65.65 0 1 0-.66-1.122A8.015 8.015 0 0 0 4.773 12.5c0 4.399 3.579 7.978 7.978 7.978 4.399 0 7.978-3.579 7.977-7.978a8.015 8.015 0 0 0-3.938-6.88Z"/><path d="M12.75 3.654a.65.65 0 0 0-.65.65V12.5a.65.65 0 0 0 1.3 0V4.305a.65.65 0 0 0-.65-.651Z"/></g><defs><clipPath id="da"><path transform="translate(.25)" d="M0 0h25v25H0z"/></clipPath></defs></symbol><symbol viewBox="0 0 26 25" id="form-icon4" xmlns="http://www.w3.org/2000/svg"><g clip-path="url(#ea)"><path d="M25.568 11.556 13.901 2.02a1.029 1.029 0 0 0-1.302 0L9.611 4.463V3.195a.495.495 0 0 0-.496-.495H6.24a.495.495 0 0 0-.495.495v4.428L.932 11.556a.495.495 0 0 0 .627.767l2.498-2.042v12.436c0 .274.222.495.495.495h17.396a.496.496 0 0 0 .496-.495V10.282l2.498 2.041a.494.494 0 0 0 .697-.07.496.496 0 0 0-.07-.697ZM6.735 3.69h1.884v1.582L6.735 6.813V3.69Zm14.718 18.531H5.047V9.471l7.779-6.357a.67.67 0 0 1 .848 0l7.78 6.358v12.75Z"/><g clip-path="url(#eb)"><path d="m18.667 15.105-2.343.806-.945-.542v-1.726l.945-.541 2.343.806a.315.315 0 0 0 .403-.202.315.315 0 0 0-.202-.403l-1.814-.617 1.7-.982a.325.325 0 0 0 .114-.441.325.325 0 0 0-.44-.114l-1.701.983.365-1.877a.317.317 0 0 0-.252-.378.317.317 0 0 0-.378.252l-.479 2.431-.944.542-.718-.416-.013-.013-.73-.428v-1.083l1.864-1.625a.309.309 0 0 0 .025-.454.309.309 0 0 0-.453-.025l-1.436 1.26v-1.99A.325.325 0 0 0 13.25 8a.325.325 0 0 0-.328.328v1.965l-1.436-1.247a.331.331 0 0 0-.453.025c-.113.138-.1.34.025.453l1.864 1.625v1.084l-.73.428-.73.428-.945-.542-.48-2.43a.317.317 0 0 0-.377-.253.317.317 0 0 0-.252.378l.365 1.877-1.7-.982a.325.325 0 0 0-.441.113.326.326 0 0 0 .113.44l1.7.983-1.813.618c-.164.063-.265.239-.202.403.063.164.24.264.403.201l2.343-.806.945.542v1.726h.013l-.945.541-2.343-.806a.315.315 0 0 0-.403.202.315.315 0 0 0 .201.403l1.814.617-1.7.983a.326.326 0 0 0-.114.44c.089.152.29.202.441.114l1.7-.983-.364 1.877a.317.317 0 0 0 .251.378.317.317 0 0 0 .378-.252l.48-2.431.944-.542.743.429.73.428v1.083l-1.864 1.625a.309.309 0 0 0-.025.454.309.309 0 0 0 .454.025l1.436-1.26v1.99c0 .177.138.328.327.328a.325.325 0 0 0 .328-.328v-1.965l1.436 1.26c.138.113.34.1.453-.025a.331.331 0 0 0-.025-.454l-1.89-1.637v-1.084l.731-.428.73-.428.945.542.48 2.43c.037.177.2.29.377.253a.318.318 0 0 0 .252-.378l-.365-1.877 1.7.982a.325.325 0 0 0 .441-.113.325.325 0 0 0-.113-.44l-1.7-.983 1.813-.618c.164-.063.265-.239.202-.403-.063-.164-.24-.264-.403-.201Zm-3.968-.605v.857l-.731.428-.718.416-.743-.429-.73-.428v-1.701l.73-.428.73-.428.731.428.013.013.718.415v.857Z"/></g></g><defs><clipPath id="ea"><path transform="translate(.75)" d="M0 0h25v25H0z"/></clipPath><clipPath id="eb"><path transform="translate(6.75 8)" d="M0 0h13v13H0z"/></clipPath></defs></symbol><symbol viewBox="0 0 26 25" id="form-icon5" xmlns="http://www.w3.org/2000/svg"><g clip-path="url(#fa)"><path d="M14.96 2.246a5.873 5.873 0 0 0-3.533 1.19L5.589 7.875H1.601C.856 7.874.25 8.48.25 9.224v6.62c0 .745.606 1.351 1.351 1.351H5.65l5.777 4.392a5.874 5.874 0 0 0 3.534 1.19c.634 0 1.15-.516 1.15-1.15V3.397c0-.635-.516-1.15-1.15-1.15Zm.414 19.381a.414.414 0 0 1-.413.413A5.132 5.132 0 0 1 11.873 21l-5.79-4.402V11.48a.368.368 0 1 0-.738 0v4.978H1.601a.615.615 0 0 1-.614-.614v-6.62c0-.338.276-.613.614-.613h3.744v1.15a.369.369 0 0 0 .737 0V8.424l5.79-4.401a5.132 5.132 0 0 1 3.089-1.04c.227 0 .413.184.413.412v18.231ZM23.822 7.933a8.119 8.119 0 0 0-1.277-1.444.369.369 0 0 0-.49.551c.436.388.827.83 1.161 1.313a7.273 7.273 0 0 1 1.297 4.159 7.272 7.272 0 0 1-1.297 4.159 7.306 7.306 0 0 1-3.327 2.645c-.48.19-.823-.573-.307-.777a6.448 6.448 0 0 0 4.096-6.027 6.448 6.448 0 0 0-4.096-6.028.415.415 0 0 1-.235-.542.418.418 0 0 1 .542-.234c.321.127.636.278.935.448a.368.368 0 1 0 .365-.64 8.095 8.095 0 0 0-1.029-.494 1.156 1.156 0 0 0-1.484 1.532c.122.283.348.502.634.615a5.715 5.715 0 0 1 3.63 5.343 5.715 5.715 0 0 1-3.63 5.342 1.147 1.147 0 0 0-.634.615 1.146 1.146 0 0 0-.014.884A1.149 1.149 0 0 0 20.16 20a8.043 8.043 0 0 0 3.663-2.91 8.009 8.009 0 0 0 1.427-4.58c0-1.646-.494-3.229-1.428-4.578Z"/><path d="M20.747 15.639a.369.369 0 0 0-.521-.007 4.305 4.305 0 0 1-2.476 1.194c-.577.073-.61-.765-.105-.829a3.519 3.519 0 0 0 3.067-3.485 3.519 3.519 0 0 0-3.067-3.486.418.418 0 0 1 .105-.828 4.356 4.356 0 0 1 3.798 4.314c0 .695-.17 1.387-.491 2.003a.368.368 0 1 0 .654.341c.375-.72.574-1.531.574-2.344a5.094 5.094 0 0 0-4.442-5.045 1.146 1.146 0 0 0-.852.232c-.244.189-.4.461-.439.767-.039.306.044.61.233.853.189.244.461.4.767.438a2.78 2.78 0 0 1 2.423 2.755 2.78 2.78 0 0 1-2.423 2.754c-.631.08-1.08.66-1 1.291a1.156 1.156 0 0 0 1.291 1 5.034 5.034 0 0 0 2.896-1.397.368.368 0 0 0 .008-.521Z"/></g><defs><clipPath id="fa"><path transform="translate(.25)" d="M0 0h25v25H0z"/></clipPath></defs></symbol><symbol viewBox="0 0 26 25" id="form-icon6" xmlns="http://www.w3.org/2000/svg"><g clip-path="url(#ga)"><path d="M25.212 17.826 16.74 3.152a4.043 4.043 0 0 0-3.49-2.017 4.042 4.042 0 0 0-3.49 2.017L1.288 17.826a4.026 4.026 0 0 0 3.49 6.039h16.944a4.027 4.027 0 0 0 3.49-6.04Zm-3.49 5.306H4.778a3.294 3.294 0 0 1-2.856-4.94l8.472-14.674a3.308 3.308 0 0 1 2.856-1.65c1.173 0 2.268.632 2.856 1.65l8.471 14.674a3.294 3.294 0 0 1-2.855 4.94Z"/><path d="M23.52 18.802 15.05 4.13a2.084 2.084 0 0 0-1.799-1.04c-.739 0-1.428.398-1.798 1.04l-3.87 6.702a.366.366 0 1 0 .634.367l3.87-6.703a1.35 1.35 0 0 1 1.164-.674c.478 0 .924.258 1.164.674l8.472 14.674a1.344 1.344 0 0 1-1.164 2.011H4.778a1.344 1.344 0 0 1-1.164-2.011l3.87-6.703a.366.366 0 0 0-.635-.366l-3.87 6.702a2.078 2.078 0 0 0 1.798 3.11h16.945a2.078 2.078 0 0 0 1.798-3.11Z"/><path d="M13.25 6.287c-.875 0-1.587.712-1.587 1.587v6.592c0 .875.712 1.587 1.587 1.587s1.587-.712 1.587-1.587V7.874c0-.875-.712-1.587-1.587-1.587Zm.854 8.179a.855.855 0 0 1-1.708 0V7.874a.856.856 0 0 1 1.708 0v6.592ZM13.25 16.785c-.875 0-1.587.712-1.587 1.587s.712 1.587 1.587 1.587 1.587-.712 1.587-1.587-.712-1.587-1.587-1.587Zm0 2.441a.856.856 0 0 1 0-1.709.855.855 0 0 1 0 1.71Z"/></g><defs><clipPath id="ga"><path transform="translate(.75)" d="M0 0h25v25H0z"/></clipPath></defs></symbol><symbol viewBox="0 0 24 24" id="menu" xmlns="http://www.w3.org/2000/svg"><path d="M3 18h18v-2H3v2zm0-5h18v-2H3v2zm0-7v2h18V6H3z"/></symbol><symbol viewBox="0 0 24 24" id="phone" xmlns="http://www.w3.org/2000/svg"><path clip-rule="evenodd" d="M19.5 21.75h-.128C4.635 20.902 2.543 8.468 2.25 4.673A2.25 2.25 0 0 1 4.5 2.25h3.953a1.5 1.5 0 0 1 1.395.945L10.988 6a1.5 1.5 0 0 1-.33 1.62L9.06 9.233a7.02 7.02 0 0 0 5.685 5.7l1.627-1.613A1.5 1.5 0 0 1 18 13.012l2.828 1.133a1.5 1.5 0 0 1 .922 1.395v3.96a2.25 2.25 0 0 1-2.25 2.25Zm-15-18a.75.75 0 0 0-.75.81C4.095 9 6.308 19.5 19.455 20.25a.75.75 0 0 0 .795-.75v-3.96l-2.828-1.132-2.152 2.137-.36-.045C8.385 15.682 7.5 9.158 7.5 9.09l-.045-.36 2.13-2.152L8.46 3.75H4.5Z"/><mask id="ia" mask-type="alpha" maskUnits="userSpaceOnUse" x="2" y="2" width="20" height="20"><path clip-rule="evenodd" d="M19.5 21.75h-.128C4.635 20.902 2.543 8.468 2.25 4.673A2.25 2.25 0 0 1 4.5 2.25h3.953a1.5 1.5 0 0 1 1.395.945L10.988 6a1.5 1.5 0 0 1-.33 1.62L9.06 9.233a7.02 7.02 0 0 0 5.685 5.7l1.627-1.613A1.5 1.5 0 0 1 18 13.012l2.828 1.133a1.5 1.5 0 0 1 .922 1.395v3.96a2.25 2.25 0 0 1-2.25 2.25Zm-15-18a.75.75 0 0 0-.75.81C4.095 9 6.308 19.5 19.455 20.25a.75.75 0 0 0 .795-.75v-3.96l-2.828-1.132-2.152 2.137-.36-.045C8.385 15.682 7.5 9.158 7.5 9.09l-.045-.36 2.13-2.152L8.46 3.75H4.5Z"/></mask></symbol><symbol viewBox="0 0 32 32" id="search" xmlns="http://www.w3.org/2000/svg"><path d="M19.427 20.427a8.5 8.5 0 1 1 2-2l5.585 5.585c.55.55.546 1.431 0 1.976l-.023.023a1.398 1.398 0 0 1-1.976 0l-5.585-5.585zM14.5 20a6.5 6.5 0 1 0 0-13 6.5 6.5 0 0 0 0 13z"/></symbol></svg>