<svg width="24" height="24" viewBox="0 0 24 24" fill="none" xmlns="http://www.w3.org/2000/svg">
<path fill-rule="evenodd" clip-rule="evenodd" d="M19.5 21.75H19.3725C4.635 20.9025 2.5425 8.46751 2.25 4.67251C2.20186 4.04649 2.41749 3.42883 2.84477 2.96879C3.27206 2.50874 3.87214 2.24816 4.5 2.25001H8.4525C9.06721 2.24941 9.62006 2.62393 9.8475 3.19501L10.9875 6.00001C11.2119 6.55737 11.082 7.19483 10.6575 7.62001L9.06 9.23251C9.5691 12.1383 11.8406 14.4158 14.745 14.9325L16.3725 13.32C16.8041 12.9001 17.445 12.7791 18 13.0125L20.8275 14.145C21.3897 14.3795 21.7543 14.9308 21.75 15.54V19.5C21.75 20.7427 20.7426 21.75 19.5 21.75ZM4.5 3.75001C4.29024 3.74934 4.08979 3.83654 3.94727 3.99045C3.80476 4.14436 3.73322 4.35092 3.75 4.56001C4.095 9.00001 6.3075 19.5 19.455 20.25C19.6616 20.2624 19.8641 20.1889 20.0147 20.0469C20.1652 19.9049 20.2504 19.707 20.25 19.5V15.54L17.4225 14.4075L15.27 16.545L14.91 16.5C8.385 15.6825 7.5 9.15751 7.5 9.09001L7.455 8.73001L9.585 6.57751L8.46 3.75001H4.5Z" fill="#C8A76C"/>
<mask id="mask0" mask-type="alpha" maskUnits="userSpaceOnUse" x="2" y="2" width="20" height="20">
<path fill-rule="evenodd" clip-rule="evenodd" d="M19.5 21.75H19.3725C4.635 20.9025 2.5425 8.46751 2.25 4.67251C2.20186 4.04649 2.41749 3.42883 2.84477 2.96879C3.27206 2.50874 3.87214 2.24816 4.5 2.25001H8.4525C9.06721 2.24941 9.62006 2.62393 9.8475 3.19501L10.9875 6.00001C11.2119 6.55737 11.082 7.19483 10.6575 7.62001L9.06 9.23251C9.5691 12.1383 11.8406 14.4158 14.745 14.9325L16.3725 13.32C16.8041 12.9001 17.445 12.7791 18 13.0125L20.8275 14.145C21.3897 14.3795 21.7543 14.9308 21.75 15.54V19.5C21.75 20.7427 20.7426 21.75 19.5 21.75ZM4.5 3.75001C4.29024 3.74934 4.08979 3.83654 3.94727 3.99045C3.80476 4.14436 3.73322 4.35092 3.75 4.56001C4.095 9.00001 6.3075 19.5 19.455 20.25C19.6616 20.2624 19.8641 20.1889 20.0147 20.0469C20.1652 19.9049 20.2504 19.707 20.25 19.5V15.54L17.4225 14.4075L15.27 16.545L14.91 16.5C8.385 15.6825 7.5 9.15751 7.5 9.09001L7.455 8.73001L9.585 6.57751L8.46 3.75001H4.5Z" fill="white"/>
</mask>
<g mask="url(#mask0)">
</g>
</svg>
