<svg width="44" height="79" viewBox="0 0 44 79" fill="none" xmlns="http://www.w3.org/2000/svg">
<path d="M21.4361 72.3103C21.4361 72.3103 21.9356 72.3098 22.1053 72.2305C35.9356 71.6374 41.8168 65.1748 43.0439 56.5819C44.2936 47.8313 43.2011 38.9057 39.8778 30.7148C36.5544 22.5239 31.1191 15.3605 24.1256 9.95438C17.2581 4.64571 9.12913 1.21803 0.539761 0.00470176C0.278574 -0.0321933 0.0385286 0.152149 0.00413012 0.413676C-0.0302684 0.675203 0.154003 0.914873 0.415183 0.951817C8.83712 2.14309 16.8075 5.50475 23.5414 10.7101C30.4013 16.013 35.7328 23.0396 38.9926 31.074C42.2524 39.1084 43.3241 47.8634 42.0983 56.4469C40.895 64.8726 35.0816 71.1773 21.356 71.6379C21.1944 71.8464 21.4361 72.3103 21.4361 72.3103Z" fill="#C4C4C4"/>
<path d="M21.0733 71.4531L27.0861 65.4568C27.2832 65.2605 27.6021 65.2608 27.7988 65.4578C27.9953 65.6549 27.9948 65.974 27.7978 66.1705L22.1428 71.8098L27.798 77.4492C27.995 77.6457 27.9955 77.9646 27.799 78.1617C27.7004 78.2604 27.5712 78.3098 27.4421 78.3098C27.3132 78.3098 27.1846 78.2608 27.0862 78.1627L21.0733 72.1666C20.9784 72.0722 20.9251 71.9437 20.9251 71.8098C20.9251 71.676 20.9785 71.5477 21.0733 71.4531Z" fill="#C4C4C4"/>
</svg>
